<?xml version="1.0" encoding="UTF-8"?>
<svg version="1.1" xmlns="http://www.w3.org/2000/svg" width="512" height="512">
<path d="M0 0 C2.41505392 2.0479991 4.66619178 4.2243262 6.94921875 6.41796875 C10.7813298 9.94065468 14.494565 12.19918008 19.19921875 14.41796875 C31.90192992 20.44520521 41.0829644 29.00557471 46.60546875 42.10546875 C49.4773547 50.31085719 50.4107647 58.15933398 50.42285156 66.79980469 C50.42781647 67.660979 50.43278137 68.52215332 50.43789673 69.40942383 C50.45242509 72.24040546 50.45930471 75.07133106 50.46484375 77.90234375 C50.46767113 78.8751252 50.4704985 79.84790665 50.47341156 80.85016632 C50.48836645 85.99809538 50.49761928 91.14599669 50.50195312 96.29394531 C50.50743234 101.58726982 50.53145951 106.88033641 50.55992508 112.17358017 C50.57863006 116.26589684 50.58376123 120.35815233 50.585289 124.45050812 C50.5882983 126.40077372 50.59626797 128.35103869 50.60947418 130.3012619 C50.70377791 145.29765842 50.44700648 157.21488294 39.66796875 168.6015625 C36.2661379 171.81886007 33.74403107 173.0777589 29.19921875 174.16796875 C26.38974068 175.16679983 24.75439711 175.99461489 23.32666016 178.67041016 C21.53149028 183.25429637 20.28030862 188.00740366 18.93847656 192.73876953 C14.23458894 207.88555918 0.51505005 222.80973324 -13.0234375 230.56640625 C-15.14008197 232.23464995 -15.210607 233.34485987 -15.73828125 235.91796875 C-15.13409866 235.97035202 -14.52991608 236.02273529 -13.90742493 236.07670593 C-7.73949451 236.64742354 -1.68749316 237.52342368 4.40625 238.625 C5.33789474 238.79166672 6.26953949 238.95833344 7.22941589 239.13005066 C9.18692691 239.48184828 11.14406227 239.83574212 13.10083008 240.19165039 C16.05467245 240.7269267 19.0105839 241.24948153 21.96679688 241.77148438 C44.70388997 245.8482996 63.00587317 251.59144118 77.26171875 270.91796875 C77.89263428 270.675625 78.5235498 270.43328125 79.17358398 270.18359375 C82.01480709 269.09333564 84.85699652 268.0056194 87.69921875 266.91796875 C88.69244141 266.53640625 89.68566406 266.15484375 90.70898438 265.76171875 C91.65322266 265.40078125 92.59746094 265.03984375 93.5703125 264.66796875 C94.44486084 264.3328125 95.31940918 263.99765625 96.22045898 263.65234375 C98.26171875 262.91796875 98.26171875 262.91796875 99.26171875 262.91796875 C99.26171875 280.73796875 99.26171875 298.55796875 99.26171875 316.91796875 C102.23171875 317.24796875 105.20171875 317.57796875 108.26171875 317.91796875 C115.25875636 321.00140905 119.71377253 325.42867026 122.82177734 332.43457031 C124.58641615 337.25310965 124.69550695 341.7353594 124.66015625 346.82421875 C124.66302643 347.74835571 124.66589661 348.67249268 124.66885376 349.62463379 C124.6708843 351.56763323 124.66542559 353.51065359 124.65283203 355.45361328 C124.63676397 358.40964937 124.65271532 361.36431839 124.671875 364.3203125 C124.66989239 366.2174509 124.66604834 368.11458846 124.66015625 370.01171875 C124.66622894 370.88590454 124.67230164 371.76009033 124.67855835 372.6607666 C124.58112548 381.2585166 122.21046397 387.79278361 116.2890625 394.15234375 C110.95150029 398.80085651 106.26956668 399.91796875 99.26171875 399.91796875 C99.26171875 410.14796875 99.26171875 420.37796875 99.26171875 430.91796875 C74.65003885 440.56666949 50.02727176 450.18548041 25.3762207 459.73318481 C8.43104294 466.2965267 -8.50395314 472.88549451 -25.42845154 479.50198364 C-26.94760644 480.09514577 -28.46725881 480.68703563 -29.98744202 481.27755737 C-33.89716041 482.79777057 -37.79470483 484.34256833 -41.68017578 485.92382812 C-42.49164566 486.24998108 -43.30311554 486.57613403 -44.13917542 486.91217041 C-45.68157811 487.53250739 -47.22085303 488.16070371 -48.75621033 488.79827881 C-56.18805392 491.76691254 -61.16926912 491.10413163 -68.5703125 488.0859375 C-69.33788376 487.78275101 -70.10545502 487.47956451 -70.89628601 487.16719055 C-73.4515145 486.15574826 -76.00093742 485.13040135 -78.55078125 484.10546875 C-80.37062477 483.38293225 -82.19094872 482.66160479 -84.01171875 481.94140625 C-86.90065718 480.79849764 -89.78924842 479.65477617 -92.67642212 478.50741577 C-102.80867789 474.4817581 -112.97490165 470.54529383 -123.14419556 466.61434937 C-128.30956342 464.61707243 -133.47319117 462.61531014 -138.63671875 460.61328125 C-139.64928238 460.2207164 -140.66184601 459.82815155 -141.70509338 459.4236908 C-158.3942524 452.95113787 -175.06691629 446.43619011 -191.73828125 439.91796875 C-192.40913757 439.65568481 -193.0799939 439.39340088 -193.7711792 439.12316895 C-200.76103801 436.39020303 -207.74988806 433.65468217 -214.73828125 430.91796875 C-214.73828125 420.68796875 -214.73828125 410.45796875 -214.73828125 399.91796875 C-217.70828125 399.58796875 -220.67828125 399.25796875 -223.73828125 398.91796875 C-230.01307035 396.55605298 -234.47609451 391.66315751 -237.73828125 385.91796875 C-239.93420358 380.65009124 -240.05999559 375.88976585 -240.07421875 370.27734375 C-240.08087555 369.35512024 -240.08753235 368.43289673 -240.09439087 367.48272705 C-240.10448687 365.53619369 -240.10920884 363.58962592 -240.10888672 361.64306641 C-240.11324702 358.69113928 -240.14956344 355.74072427 -240.1875 352.7890625 C-240.19337167 350.88932797 -240.19733872 348.98958642 -240.19921875 347.08984375 C-240.21358978 346.21970642 -240.22796082 345.34956909 -240.24276733 344.45306396 C-240.18793212 336.96047419 -238.35882777 330.15791718 -233.58984375 324.26171875 C-227.12289377 318.90663034 -223.35919325 316.91796875 -214.73828125 316.91796875 C-214.73828125 299.09796875 -214.73828125 281.27796875 -214.73828125 262.91796875 C-209.45828125 264.89796875 -204.17828125 266.87796875 -198.73828125 268.91796875 C-196.75828125 269.57796875 -194.77828125 270.23796875 -192.73828125 270.91796875 C-192.04863281 270.13292969 -191.35898438 269.34789062 -190.6484375 268.5390625 C-179.30935625 255.78868801 -168.22924487 247.68681845 -151.11328125 244.48046875 C-149.61897583 244.18523315 -149.61897583 244.18523315 -148.09448242 243.8840332 C-144.6456237 243.21064608 -141.19258262 242.56284423 -137.73828125 241.91796875 C-136.32269825 241.65035935 -134.90717328 241.38244284 -133.49169922 241.11425781 C-129.01333405 240.26742256 -124.53255922 239.43403119 -120.05078125 238.60546875 C-119.32437439 238.47036896 -118.59796753 238.33526917 -117.84954834 238.19607544 C-115.76776141 237.81062377 -113.68490707 237.43161847 -111.6015625 237.0546875 C-109.79619019 236.72537231 -109.79619019 236.72537231 -107.9543457 236.3894043 C-105.1493512 235.97822656 -102.56515428 235.82099597 -99.73828125 235.91796875 C-100.0594372 232.9954496 -100.55181706 232.07243816 -102.85546875 230.1640625 C-103.76554688 229.56722656 -104.675625 228.97039062 -105.61328125 228.35546875 C-121.78509674 216.98073324 -133.72671723 200.95647072 -137.92578125 181.41796875 C-138.76085223 178.45768905 -139.10254609 177.28659845 -141.79296875 175.7265625 C-143.50867685 175.13060782 -145.23484612 174.5641718 -146.96875 174.0234375 C-154.03827313 171.20161092 -159.89575628 165.0207363 -163.01953125 158.1328125 C-163.25671875 157.40191406 -163.49390625 156.67101562 -163.73828125 155.91796875 C-164.07762695 154.8913916 -164.41697266 153.86481445 -164.76660156 152.80712891 C-166.47502664 145.85561795 -166.02499445 138.58972508 -166.00390625 131.4765625 C-166.00525656 129.86483197 -166.00720012 128.25310183 -166.00970459 126.64137268 C-166.01264457 123.26828115 -166.00839856 119.89529591 -165.99902344 116.5222168 C-165.98769399 112.24160642 -165.99415401 107.96124873 -166.00616837 103.68064785 C-166.01347279 100.35077591 -166.01105909 97.02096161 -166.00591278 93.69108772 C-166.00459649 92.11535676 -166.0061514 90.53962024 -166.01087189 88.9638958 C-166.08885598 55.59010034 -156.02032046 28.60293813 -132.46875 4.60546875 C-96.72677274 -29.53612147 -38.1435882 -30.15540219 0 0 Z M-120.73828125 17.91796875 C-121.41117188 18.4903125 -122.0840625 19.06265625 -122.77734375 19.65234375 C-136.56237538 32.36730443 -145.29330357 51.59235332 -147.73828125 69.91796875 C-147.87009463 73.32230579 -147.85481247 76.72246165 -147.8359375 80.12890625 C-147.83452255 81.09704254 -147.8331076 82.06517883 -147.83164978 83.06265259 C-147.8260749 86.13945674 -147.81352702 89.21618678 -147.80078125 92.29296875 C-147.795763 94.38541561 -147.79120066 96.47786362 -147.78710938 98.5703125 C-147.7761137 103.68622625 -147.7588664 108.80208496 -147.73828125 113.91796875 C-144.27328125 112.92796875 -144.27328125 112.92796875 -140.73828125 111.91796875 C-140.73828125 108.61796875 -140.73828125 105.31796875 -140.73828125 101.91796875 C-139.54074219 101.964375 -138.34320313 102.01078125 -137.109375 102.05859375 C-115.45306909 102.64667929 -97.45361468 96.40540443 -81.44287109 81.54345703 C-77.63315122 77.91052737 -73.90489278 74.19507432 -70.23046875 70.42553711 C-65.92502877 66.01134251 -65.92502877 66.01134251 -63.73828125 64.91796875 C-63.33609375 65.78035156 -63.33609375 65.78035156 -62.92578125 66.66015625 C-54.25099477 83.15366475 -38.07650369 94.21941603 -20.73828125 99.91796875 C-11.39289685 102.68798731 -1.75145914 102.14314985 7.88671875 102.04296875 C9.57551552 102.03291832 11.26431809 102.02379612 12.953125 102.015625 C17.05613469 101.99377614 21.15886157 101.95936029 25.26171875 101.91796875 C25.26171875 105.21796875 25.26171875 108.51796875 25.26171875 111.91796875 C27.57171875 112.57796875 29.88171875 113.23796875 32.26171875 113.91796875 C32.35497243 106.54580022 32.42576118 99.17376176 32.46896744 91.8011198 C32.48971906 88.37655788 32.51780378 84.95240358 32.56347656 81.52807617 C32.61581472 77.57866532 32.63476669 73.62941146 32.65234375 69.6796875 C32.67298889 68.46778244 32.69363403 67.25587738 32.71490479 66.00724792 C32.71798981 54.15854445 29.901969 45.62571083 21.62109375 37.07421875 C17.07901835 32.92318295 12.44204751 30.3717643 6.76171875 28.10546875 C2.3419236 26.22310284 -0.27432299 23.58216031 -3.5390625 20.125 C-19.10171303 4.50706474 -41.15816697 -4.20128297 -63.05078125 -4.39453125 C-85.05396407 -4.39453125 -104.21538168 3.62021612 -120.73828125 17.91796875 Z M-72.17578125 95.98046875 C-86.49768984 109.07126772 -103.79748436 115.84330413 -122.73828125 118.91796875 C-122.81489722 126.10377097 -122.86711681 133.28946625 -122.90307617 140.47558594 C-122.91808103 142.91573015 -122.9384914 145.35584777 -122.96459961 147.79589844 C-123.00134976 151.32103067 -123.01809127 154.84580363 -123.03125 158.37109375 C-123.04673386 159.44659485 -123.06221771 160.52209595 -123.07817078 161.63018799 C-123.08169887 177.82587384 -117.41141494 191.79147217 -106.73828125 203.91796875 C-106.13242188 204.60632813 -105.5265625 205.2946875 -104.90234375 206.00390625 C-92.7118321 218.99053295 -75.7333319 225.67576924 -58.11328125 226.29296875 C-40.37046715 225.96582359 -23.94439887 219.21416534 -11.359375 206.671875 C1.7422215 192.90641221 7.83400159 177.59628219 7.5546875 158.58984375 C7.55044266 157.47482483 7.54619781 156.35980591 7.54182434 155.21099854 C7.5252111 151.69639549 7.48759217 148.18239454 7.44921875 144.66796875 C7.43414947 142.26563336 7.42046502 139.86328886 7.40820312 137.4609375 C7.37536475 131.61308047 7.32534233 125.76556764 7.26171875 119.91796875 C6.60916611 119.86589264 5.95661346 119.81381653 5.2842865 119.76016235 C2.2854684 119.51809278 -0.7127146 119.2688604 -3.7109375 119.01953125 C-4.73723267 118.93775635 -5.76352783 118.85598145 -6.82092285 118.77172852 C-29.06719508 116.9005053 -47.78644015 108.45503371 -64.14453125 93.203125 C-67.70382684 90.33300674 -69.42223887 93.34147373 -72.17578125 95.98046875 Z M-141.73828125 130.91796875 C-146.17867655 135.91341346 -148.0597692 138.86928795 -147.95703125 145.85546875 C-147.61886515 149.04389196 -146.47313463 151.25372963 -144.73828125 153.91796875 C-143.41828125 154.90796875 -142.09828125 155.89796875 -140.73828125 156.91796875 C-140.73828125 148.33796875 -140.73828125 139.75796875 -140.73828125 130.91796875 C-141.06828125 130.91796875 -141.39828125 130.91796875 -141.73828125 130.91796875 Z M25.26171875 130.91796875 C25.26171875 139.49796875 25.26171875 148.07796875 25.26171875 156.91796875 C31.19917794 151.33056686 31.19917794 151.33056686 32.57421875 144.04296875 C32.46268509 140.05006367 31.4655503 137.30242434 29.26171875 133.91796875 C27.94171875 132.92796875 26.62171875 131.93796875 25.26171875 130.91796875 Z M-77.73828125 240.91796875 C-74.00812714 244.82474 -70.08620982 248.15491022 -65.73828125 251.35546875 C-65.135 251.82662109 -64.53171875 252.29777344 -63.91015625 252.78320312 C-60.46187274 255.36762459 -60.46187274 255.36762459 -56.3203125 255.5859375 C-52.55452379 253.15327217 -48.97656015 250.52824258 -45.42578125 247.79296875 C-44.68521484 247.22964844 -43.94464844 246.66632813 -43.18164062 246.0859375 C-41.36326516 244.70162586 -39.54903451 243.31222649 -37.73828125 241.91796875 C-40.44038033 240.56691921 -41.80480796 241.30811097 -44.73828125 241.91796875 C-46.71329532 242.00785004 -48.69091174 242.04859182 -50.66796875 242.05078125 C-51.79332031 242.05207031 -52.91867187 242.05335938 -54.078125 242.0546875 C-55.24472656 242.05082031 -56.41132813 242.04695313 -57.61328125 242.04296875 C-58.77214844 242.04683594 -59.93101562 242.05070312 -61.125 242.0546875 C-66.76571618 242.04824097 -72.18503713 241.93795236 -77.73828125 240.91796875 Z M-25.12011719 253.27319336 C-26.40837402 254.28651733 -26.40837402 254.28651733 -27.72265625 255.3203125 C-28.65722656 256.04541016 -29.59179688 256.77050781 -30.5546875 257.51757812 C-31.52277344 258.28908203 -32.49085938 259.06058594 -33.48828125 259.85546875 C-34.47183594 260.62310547 -35.45539063 261.39074219 -36.46875 262.18164062 C-38.90103995 264.0826051 -41.32345617 265.99490022 -43.73828125 267.91796875 C-42.45653407 270.73674887 -41.1282051 272.77038371 -38.91796875 274.93359375 C-38.11552734 275.72636719 -38.11552734 275.72636719 -37.296875 276.53515625 C-36.74128906 277.07398438 -36.18570313 277.6128125 -35.61328125 278.16796875 C-35.04996094 278.72226562 -34.48664063 279.2765625 -33.90625 279.84765625 C-32.52142097 281.2090136 -31.13044921 282.56411734 -29.73828125 283.91796875 C-27.47030378 283.05705637 -27.47030378 283.05705637 -26.68505859 280.37353516 C-26.13519287 278.71330322 -26.13519287 278.71330322 -25.57421875 277.01953125 C-25.17460937 275.818125 -24.775 274.61671875 -24.36328125 273.37890625 C-24.15832031 272.74952148 -23.95335937 272.12013672 -23.7421875 271.47167969 C-23.11714367 269.55481392 -22.4794889 267.64250511 -21.83984375 265.73046875 C-19.57948582 259.45108433 -19.57948582 259.45108433 -18.73828125 252.91796875 C-21.55474892 251.72923695 -22.40832372 251.73022846 -25.12011719 253.27319336 Z M-96.73828125 252.91796875 C-95.33980657 259.80439708 -93.38813348 266.33623572 -91.11328125 272.98046875 C-90.7884375 273.94146484 -90.46359375 274.90246094 -90.12890625 275.89257812 C-89.33616933 278.23581519 -88.53923549 280.57753051 -87.73828125 282.91796875 C-84.80900895 283.22498689 -84.80900895 283.22498689 -83.2043457 281.72460938 C-82.67542725 281.17998047 -82.14650879 280.63535156 -81.6015625 280.07421875 C-81.02470703 279.48769531 -80.44785156 278.90117187 -79.85351562 278.296875 C-79.25861328 277.67683594 -78.66371094 277.05679687 -78.05078125 276.41796875 C-77.44427734 275.79792969 -76.83777344 275.17789062 -76.21289062 274.5390625 C-74.71454382 273.00532168 -73.22551632 271.46248677 -71.73828125 269.91796875 C-73.19051341 266.36968635 -74.97315476 264.70167136 -78.0546875 262.46484375 C-78.90095703 261.84609375 -79.74722656 261.22734375 -80.61914062 260.58984375 C-81.50408203 259.955625 -82.38902344 259.32140625 -83.30078125 258.66796875 C-84.18958984 258.01828125 -85.07839844 257.36859375 -85.99414062 256.69921875 C-90.932987 252.44432847 -90.932987 252.44432847 -96.73828125 252.91796875 Z M-0.73828125 255.91796875 C-2.68163961 261.55405304 -4.6203365 267.19171225 -6.55493164 272.83081055 C-7.21221479 274.74465021 -7.87071839 276.65807121 -8.53051758 278.57104492 C-13.59466277 293.10369585 -13.59466277 293.10369585 -17.73828125 307.91796875 C-12.94175292 307.18054655 -8.62226661 305.47452527 -4.1171875 303.7421875 C-3.27215164 303.4205513 -2.42711578 303.0989151 -1.55647278 302.76753235 C1.19707538 301.71777678 3.94822484 300.66189807 6.69921875 299.60546875 C8.59095706 298.88209342 10.48272154 298.15878654 12.37451172 297.43554688 C28.06845133 291.42374333 43.69074545 285.24105873 59.26171875 278.91796875 C55.7014542 271.45942156 49.13668284 267.40188923 41.74633789 264.14672852 C34.4511681 261.57427776 26.7990974 260.43861382 19.19921875 259.10546875 C17.48349006 258.79229434 15.76799263 258.47785018 14.05273438 258.16210938 C6.6986753 256.59914534 6.6986753 256.59914534 -0.73828125 255.91796875 Z M-131.2800293 258.52416992 C-133.01918217 258.82411241 -134.75974268 259.11602404 -136.50170898 259.39916992 C-150.40748335 261.66637228 -163.70706846 264.68240228 -173.69921875 275.4375 C-174.92977342 276.88935713 -174.92977342 276.88935713 -174.73828125 278.91796875 C-142.86427346 291.59364902 -142.86427346 291.59364902 -110.92578125 304.10546875 C-109.89855957 304.50813965 -108.87133789 304.91081055 -107.81298828 305.32568359 C-106.89501465 305.67969238 -105.97704102 306.03370117 -105.03125 306.3984375 C-104.26321045 306.69645264 -103.4951709 306.99446777 -102.70385742 307.30151367 C-100.60452395 308.06759542 -100.60452395 308.06759542 -97.73828125 307.91796875 C-100.39924806 296.96341393 -104.25428379 286.37534116 -107.92578125 275.73046875 C-108.58690471 273.8054471 -109.24771469 271.88031775 -109.90820312 269.95507812 C-111.51461532 265.27479144 -113.12527084 260.59598532 -114.73828125 255.91796875 C-120.13943796 255.91796875 -125.96060765 257.59422182 -131.2800293 258.52416992 Z M-60.1177063 282.05688477 C-60.64621185 282.58983154 -61.17471741 283.12277832 -61.71923828 283.671875 C-62.31970978 284.27249756 -62.92018127 284.87312012 -63.53884888 285.49194336 C-64.18473969 286.14815674 -64.83063049 286.80437012 -65.49609375 287.48046875 C-66.1591452 288.1463501 -66.82219666 288.81223145 -67.50534058 289.49829102 C-69.62937542 291.63355256 -71.74636518 293.77565161 -73.86328125 295.91796875 C-75.29902166 297.36373573 -76.73521379 298.80905427 -78.171875 300.25390625 C-81.69927997 303.80340461 -85.22038022 307.35905183 -88.73828125 310.91796875 C-86.67872178 315.03708769 -80.22633269 316.17372026 -76.02954102 317.82348633 C-74.06972307 318.59798317 -72.12007168 319.39488645 -70.16992188 320.19335938 C-68.91852738 320.6902114 -67.66658975 321.18569803 -66.4140625 321.6796875 C-64.71117065 322.35970825 -64.71117065 322.35970825 -62.97387695 323.0534668 C-57.25976081 324.58019171 -52.82321933 322.72841483 -47.46484375 320.6328125 C-46.31113281 320.18486328 -45.15742188 319.73691406 -43.96875 319.27539062 C-42.77894531 318.80681641 -41.58914063 318.33824219 -40.36328125 317.85546875 C-39.15027344 317.38302734 -37.93726563 316.91058594 -36.6875 316.42382812 C-33.70237946 315.26033626 -30.71944017 314.09156583 -27.73828125 312.91796875 C-27.73828125 308.9761958 -29.44025858 307.85374891 -32.10848999 305.15657043 C-32.73655548 304.53771469 -33.36462097 303.91885895 -34.01171875 303.28125 C-34.65066071 302.64180954 -35.28960266 302.00236908 -35.94790649 301.34355164 C-37.30119985 299.99260047 -38.65819165 298.64534564 -40.01855469 297.30151367 C-42.10658735 295.23708698 -44.18097354 293.15965485 -46.25390625 291.08007812 C-47.56821961 289.77134076 -48.88329831 288.46337145 -50.19921875 287.15625 C-50.82323578 286.53132156 -51.44725281 285.90639313 -52.09017944 285.26252747 C-55.65102369 280.95879236 -55.65102369 280.95879236 -60.1177063 282.05688477 Z M-197.73828125 288.91796875 C-197.98701787 293.20427464 -198.16757895 297.48668718 -198.28759766 301.77807617 C-198.3376483 303.23454977 -198.40572297 304.69052671 -198.49267578 306.14526367 C-199.20778525 314.87398782 -199.20778525 314.87398782 -195.57324219 322.44091797 C-192.08887116 324.91898846 -188.78655666 326.56854361 -184.73828125 327.91796875 C-183.734375 329.7265625 -183.734375 329.7265625 -182.73828125 331.91796875 C-181.77004511 333.27997224 -180.79009291 334.63369588 -179.80078125 335.98046875 C-173.48654664 345.44410156 -172.27608916 356.51036423 -174.20703125 367.61328125 C-176.69819716 377.07378036 -182.04711666 385.81364295 -189.73828125 391.91796875 C-190.39538086 392.22484619 -191.05248047 392.53172363 -191.72949219 392.84790039 C-194.09098386 394.01949113 -195.86432732 395.05457918 -197.73828125 396.91796875 C-198.73173337 400.56100199 -198.4996195 403.98880857 -198.23828125 407.73046875 C-198.2021875 408.70951172 -198.16609375 409.68855469 -198.12890625 410.69726562 C-198.03481333 413.10839661 -197.89665252 415.51046539 -197.73828125 417.91796875 C-191.49977361 420.74702732 -185.20532538 423.38312503 -178.8359375 425.90234375 C-177.89728348 426.27497849 -176.95862946 426.64761322 -175.99153137 427.03153992 C-172.92888918 428.24607464 -169.8649462 429.45728139 -166.80078125 430.66796875 C-165.21635223 431.29507248 -165.21635223 431.29507248 -163.59991455 431.93484497 C-147.78285662 438.19239918 -131.92135979 444.32273844 -116.01126099 450.33947754 C-103.08988431 455.22612285 -90.23161026 460.24688491 -77.44091797 465.46655273 C-76.31186035 465.92489502 -75.18280273 466.3832373 -74.01953125 466.85546875 C-73.04048828 467.25636719 -72.06144531 467.65726563 -71.05273438 468.0703125 C-68.83607898 469.03260388 -68.83607898 469.03260388 -66.73828125 468.91796875 C-66.73828125 426.01796875 -66.73828125 383.11796875 -66.73828125 338.91796875 C-80.59828125 333.63796875 -94.45828125 328.35796875 -108.73828125 322.91796875 C-123.16137717 317.2585963 -123.16137717 317.2585963 -130.19915771 314.44497681 C-135.11118851 312.48222065 -140.0282377 310.5321099 -144.9453125 308.58203125 C-145.92608765 308.19302139 -146.90686279 307.80401154 -147.9173584 307.4032135 C-157.43475594 303.63332438 -166.97141931 299.91402901 -176.52236938 296.23001099 C-178.23796914 295.5681535 -179.95312506 294.90514428 -181.66781616 294.24093628 C-184.01026452 293.33414753 -186.35440225 292.43189431 -188.69921875 291.53125 C-189.38944626 291.26351776 -190.07967377 290.99578552 -190.79081726 290.71994019 C-194.16793916 289.36678529 -194.16793916 289.36678529 -197.73828125 288.91796875 Z M72.8203125 291.75 C71.66032997 292.20484772 71.66032997 292.20484772 70.47691345 292.66888428 C68.78154361 293.33404641 67.08677241 294.00073584 65.39251709 294.66873169 C61.70918275 296.12075522 58.02285974 297.56511659 54.33666992 299.00987244 C52.36957066 299.78088877 50.40261431 300.55226982 48.43579102 301.32398987 C38.18664189 305.34423161 27.92424551 309.33008496 17.65896606 313.30892944 C14.78466477 314.42311918 11.91073875 315.53827189 9.03686523 316.65356445 C-10.2064798 324.11456185 -29.47462609 331.50887061 -48.73828125 338.91796875 C-48.73828125 381.81796875 -48.73828125 424.71796875 -48.73828125 468.91796875 C-42.89070047 466.96877516 -37.11251631 464.984174 -31.359375 462.79296875 C-30.17624222 462.34428436 -30.17624222 462.34428436 -28.96920776 461.88653564 C-26.37043134 460.89953567 -23.77298885 459.90908909 -21.17578125 458.91796875 C-20.27088959 458.57326538 -19.36599792 458.22856201 -18.4336853 457.87341309 C-1.21784955 451.3103988 15.91928776 444.55437995 33.03955078 437.74658203 C46.19337607 432.51720919 59.36988198 427.35356063 72.59448242 422.30566406 C73.74150635 421.86577148 74.88853027 421.42587891 76.0703125 420.97265625 C77.05829834 420.59608887 78.04628418 420.21952148 79.06420898 419.83154297 C81.19889471 419.10795501 81.19889471 419.10795501 82.26171875 417.91796875 C84.05067393 405.53499071 84.05067393 405.53499071 80.3125 394.28515625 C77.77993281 392.61649404 77.77993281 392.61649404 75.00390625 391.3046875 C66.49211696 387.00029263 61.9432628 377.87852371 59.01171875 369.23046875 C56.33272466 356.76096898 58.51837304 344.27577375 65.38671875 333.54296875 C69.20079007 328.47405145 73.90602841 325.21377819 79.26171875 321.91796875 C80.25171875 321.25796875 81.24171875 320.59796875 82.26171875 319.91796875 C82.68025923 316.7137155 82.68025923 316.7137155 82.5546875 312.94140625 C82.55044266 312.25615875 82.54619781 311.57091125 82.54182434 310.86489868 C82.52501628 308.67385746 82.4873628 306.48373243 82.44921875 304.29296875 C82.43417454 302.80860702 82.42048568 301.3242309 82.40820312 299.83984375 C82.37510665 296.19892042 82.32331082 292.55853397 82.26171875 288.91796875 C78.9059722 288.91796875 75.90660192 290.52694163 72.8203125 291.75 Z M-221.73828125 338.91796875 C-222.44998381 341.88424751 -222.41664555 344.75765633 -222.3671875 347.796875 C-222.36959946 348.64595932 -222.37201141 349.49504364 -222.37449646 350.36985779 C-222.37351965 352.15929856 -222.3601656 353.94877016 -222.33520508 355.73803711 C-222.30084374 358.47549025 -222.31456569 361.20972278 -222.33398438 363.94726562 C-222.32708693 365.6888158 -222.31741546 367.43035767 -222.3046875 369.171875 C-222.30964737 369.98862198 -222.31460724 370.80536896 -222.31971741 371.64686584 C-222.24446954 375.27883752 -222.08375942 377.46031475 -219.86303711 380.40209961 C-216.90295781 382.51391535 -215.42355792 382.91796875 -211.73828125 382.91796875 C-203.12770161 381.15101979 -197.6294614 377.1873167 -192.73828125 369.91796875 C-189.47415237 362.70195139 -189.22867402 356.36495543 -191.73828125 348.91796875 C-195.47412329 341.86137823 -201.21677129 336.83243912 -208.82421875 334.39453125 C-215.10389853 332.83101914 -217.73147049 333.79201572 -221.73828125 338.91796875 Z M78.26171875 344.91796875 C74.59846089 351.7560501 73.506187 358.13677546 75.40234375 365.64453125 C77.60632963 371.47507572 82.01156715 376.62136193 87.26171875 379.91796875 C92.33295652 382.18023095 96.80671437 383.82087725 102.26171875 381.91796875 C104.55570756 380.45459202 104.55570756 380.45459202 106.26171875 377.91796875 C106.6715835 374.87934215 106.84657601 372.21022272 106.828125 369.171875 C106.83432358 368.32374741 106.84052216 367.47561981 106.84690857 366.60179138 C106.8540025 364.81062974 106.8508401 363.01940211 106.83813477 361.22827148 C106.82428089 358.49273803 106.85832734 355.76063453 106.89648438 353.02539062 C106.89743574 351.28255125 106.89557579 349.5397076 106.890625 347.796875 C106.90388321 346.98215225 106.91714142 346.1674295 106.93080139 345.32801819 C106.86071304 341.03584582 106.63321559 339.39105065 103.89038086 335.89819336 C101.43308245 333.75498901 101.43308245 333.75498901 98.57421875 333.35546875 C90.13337887 334.78881892 83.48193229 338.01100097 78.26171875 344.91796875 Z " fill="#FFFFFF" transform="translate(313.73828125,21.08203125)"/>
</svg>
