<?xml version="1.0" encoding="utf-8"?>
<!-- Generator: Adobe Illustrator 22.1.0, SVG Export Plug-In . SVG Version: 6.00 Build 0)  -->
<svg version="1.1" xmlns="http://www.w3.org/2000/svg" xmlns:xlink="http://www.w3.org/1999/xlink" x="0px" y="0px"
	 viewBox="0 0 500 500" style="enable-background:new 0 0 500 500;" xml:space="preserve">
<style type="text/css">
	.st0{fill:#828282;}
	.st1{display:none;}
	.st2{display:inline;}
	.st3{fill:#F5F5F5;}
	.st4{fill:#263238;}
	.st5{fill:#FFFFFF;}
	.st6{fill:#E0E0E0;}
	.st7{fill:#0D42FF;}
	.st8{fill:#FFBF9D;}
	.st9{fill:#FF9A6C;}
	.st10{fill:#455A64;}
	.st11{opacity:0.3;}
	.st12{fill:none;stroke:#839198;stroke-miterlimit:10;}
	.st13{fill:#AE7461;}
	.st14{fill:#6F4439;}
	.st15{fill:#D41700;}
</style>
<g id="Background_Complete">
	<g>
		<g>
			<g>
				<g>
					<g>
						<g>
							<g>
								<path class="st0" d="M385.6,98.2c8.3-3.3,14.2-11.3,14.3-20.8c0.1-12.4-10-22.5-22.4-22.6c-12.4-0.1-22.5,10-22.6,22.4
									c0,9.6,5.9,17.7,14.3,21c-34.6,4.9-33,40.2-33,40.2l81.8,0.4C418.1,138.7,419.9,103.1,385.6,98.2z"/>
							</g>
						</g>
					</g>
				</g>
				<g>
					<g>
						<g>
							<g>
								
									<ellipse transform="matrix(9.869826e-03 -1 1 9.869826e-03 276.7001 545.1961)" class="st0" cx="413.7" cy="132.9" rx="24" ry="24"/>
							</g>
							<g>
								<g>
									<path class="st0" d="M437.5,135.5c0,0,0-0.1,0-0.4c0-0.3,0-0.7,0-1.1c0-0.3,0-0.5,0-0.8c0-0.3,0-0.6,0-1
										c0-0.7-0.1-1.6-0.2-2.5c-0.2-1.9-0.9-4.1-2-6.6c-1.1-2.4-2.8-5-5.3-7.4c-2.5-2.3-5.7-4.4-9.5-5.5
										c-3.8-1.1-8.2-1.4-12.5-0.3c-1.1,0.2-2.1,0.6-3.2,1c-1,0.5-2.1,0.9-3.1,1.5c-1,0.6-2,1.3-2.9,2c-0.9,0.8-1.8,1.6-2.6,2.5
										c-1.6,1.8-3.1,3.8-4.1,6.1c-1,2.3-1.7,4.8-2,7.3c-0.2,2.6-0.1,5.1,0.4,7.6c0.5,2.5,1.5,4.8,2.7,6.9c0.6,1.1,1.3,2,2,3
										c0.8,0.9,1.5,1.8,2.4,2.6c0.8,0.8,1.8,1.5,2.7,2.2c1,0.6,1.9,1.2,2.9,1.7c4,2,8.4,2.6,12.3,2.4c4-0.3,7.5-1.6,10.4-3.3
										c2.9-1.7,5.1-3.9,6.8-6.1c1.6-2.2,2.7-4.2,3.3-6c0.4-0.9,0.6-1.7,0.8-2.4c0.1-0.4,0.2-0.7,0.3-1c0.1-0.3,0.1-0.6,0.1-0.8
										c0.1-0.5,0.2-0.8,0.2-1.1C437.5,135.6,437.5,135.5,437.5,135.5c0,0,0,0.1,0,0.4c0,0.3-0.1,0.7-0.2,1.1
										c0,0.3-0.1,0.5-0.1,0.8c-0.1,0.3-0.2,0.6-0.2,1c-0.2,0.7-0.4,1.5-0.7,2.4c-0.6,1.8-1.7,3.9-3.3,6.1
										c-1.6,2.2-3.9,4.4-6.8,6.2c-2.9,1.8-6.5,3.2-10.6,3.4c-4,0.3-8.5-0.3-12.5-2.4c-1-0.5-2-1.1-3-1.7
										c-0.9-0.7-1.9-1.4-2.8-2.2c-0.9-0.8-1.7-1.7-2.5-2.6c-0.7-1-1.5-2-2.1-3c-1.2-2.1-2.2-4.5-2.7-7c-0.5-2.5-0.7-5.1-0.4-7.7
										c0.3-2.6,1-5.1,2.1-7.5c1-2.4,2.5-4.4,4.2-6.3c0.8-0.9,1.8-1.7,2.7-2.5c1-0.7,1.9-1.5,3-2c1-0.6,2.1-1.1,3.2-1.6
										c1.1-0.4,2.2-0.8,3.3-1c4.4-1.1,8.9-0.8,12.8,0.4c3.9,1.1,7.1,3.3,9.6,5.6c2.5,2.4,4.2,5,5.3,7.5c1.1,2.5,1.7,4.8,1.9,6.7
										c0.2,0.9,0.2,1.8,0.2,2.5c0,0.4,0,0.7,0,1c0,0.3,0,0.6-0.1,0.8c0,0.5-0.1,0.9-0.1,1.1C437.5,135.3,437.5,135.5,437.5,135.5
										z"/>
								</g>
							</g>
						</g>
						<g>
							<g>
								<polygon class="st0" points="411.9,144.1 399.5,133.6 403.1,129.3 411.5,136.3 424.3,122.7 428.4,126.5 								"/>
							</g>
						</g>
					</g>
				</g>
			</g>
			<g>
				<g>
					<path class="st0" d="M448.3,95.5c0.1,0.1-2.5,2.9-5.9,6.3c-3.4,3.4-6.2,6-6.3,5.9c-0.1-0.1,2.5-2.9,5.9-6.3
						C445.4,98,448.2,95.4,448.3,95.5z"/>
				</g>
			</g>
			<g>
				<g>
					<path class="st0" d="M469.7,113.4c0,0-0.3,0.2-1,0.5c-0.7,0.3-1.6,0.7-2.8,1.1c-2.4,0.9-5.8,2-9.6,3.1c-3.8,1-7.3,1.8-9.8,2.3
						c-1.3,0.2-2.3,0.4-3,0.5c-0.7,0.1-1.1,0.1-1.1,0.1c0,0,0.4-0.1,1.1-0.3c0.8-0.2,1.8-0.4,3-0.7c2.5-0.6,6-1.4,9.7-2.4
						c3.8-1,7.1-2.1,9.6-2.9c1.1-0.4,2.1-0.7,2.9-1C469.3,113.5,469.7,113.4,469.7,113.4z"/>
				</g>
			</g>
			<g>
				<g>
					<path class="st0" d="M457.5,146.5c-0.1,0.1-3.4-1.6-7.4-3.8c-4-2.2-7.2-4.2-7.1-4.3c0.1-0.1,3.4,1.6,7.4,3.8
						C454.4,144.5,457.6,146.4,457.5,146.5z"/>
				</g>
			</g>
		</g>
		<g>
			<g>
				<g>
					<g>
						<g>
							<g>
								<path class="st0" d="M421,83.1c2.9-1.1,4.9-3.9,4.9-7.2c0-4.3-3.4-7.8-7.7-7.8c-4.3,0-7.7,3.4-7.8,7.7c0,3.3,2,6.1,4.9,7.2
									C403.5,84.8,404,96.9,404,96.9l28.1,0.1C432.1,97,432.8,84.8,421,83.1z"/>
							</g>
						</g>
					</g>
				</g>
			</g>
		</g>
	</g>
	<g>
		<g>
			<g>
				<path class="st0" d="M38.8,252.3c0,0-9.2,1.7-3,21.5c6.2,19.8,11.1,29.9,11.1,29.9s0.9,4.5-2.8,4.5c-3.7,0-11.4-2.6-13.8,1.5
					c-2.5,4.2,0.1,9,6.2,13.9c6.1,4.9,19,16.1,20.1,17.1c1.1,1,2.1,3.2-0.5,3.6c-2.5,0.4-20.7-0.8-20.8,7.7
					c-0.1,8.5,19.1,19.4,21.2,20.6c2.1,1.2,2.4,2.2,2,3.4c-0.4,1.2-6.5,0.2-11.6,0c-5.2-0.1-11.2,0.6-10.8,5.5
					c0.4,4.9,10.8,16.9,39.7,24.8l13.7,2.8l9.5-10.2c19-23,20.5-38.7,17.9-42.9c-2.6-4.2-7.9-1.4-12.1,1.7s-8.5,7.3-9.5,6.6
					c-1-0.7-1.3-1.8-0.3-4c1-2.2,10.3-22,5.2-28.9c-5.1-6.9-19.2,4.4-21.5,5.5c-2.3,1.1-2.8-1.2-2.5-2.7c0.4-1.5,4.3-18,6.4-25.4
					c2.1-7.4,1.4-12.8-3.1-14.9c-4.3-2-9.1,4.6-12.1,6.6c-3.1,2.1-4.9-2.1-4.9-2.1s-1.9-11.1-8.5-30.7
					c-6.5-19.7-15.3-15.7-15.3-15.7"/>
			</g>
		</g>
		<g>
			<g>
				<g>
					<path class="st0" d="M89.6,412.6c-4.7-14.5-12.8-40.3-19.7-62.5c-7-22.1-13.3-42.2-18-56.7c-2.3-7.2-4.2-13.1-5.6-17.1
						c-0.6-2-1.2-3.6-1.5-4.7c-0.2-0.5-0.3-0.9-0.4-1.2c-0.1-0.3-0.1-0.4-0.1-0.4s0.1,0.1,0.2,0.4c0.1,0.3,0.2,0.7,0.4,1.2
						c0.4,1.1,0.9,2.6,1.6,4.6c1.4,4,3.3,9.9,5.7,17.1c4.7,14.5,11.1,34.5,18.1,56.6c7,22.2,14.9,48,19.6,62.5"/>
				</g>
			</g>
		</g>
		<g>
			<g>
				<g>
					<path class="st0" d="M40.9,313.8c0,0,0.3,0.1,0.9,0.4c0.6,0.3,1.4,0.8,2.4,1.3c2,1.1,4.7,2.8,7.7,4.7c2.9,1.9,5.6,3.5,7.6,4.8
						c0.9,0.6,1.7,1.1,2.3,1.4c0.5,0.3,0.8,0.5,0.8,0.6c0,0-0.3-0.1-0.9-0.4c-0.6-0.3-1.4-0.8-2.4-1.3c-2-1.2-4.7-2.8-7.7-4.7
						c-2.9-1.8-5.6-3.5-7.6-4.8c-0.9-0.6-1.7-1.1-2.3-1.4C41.2,314,40.9,313.8,40.9,313.8z"/>
				</g>
			</g>
		</g>
		<g>
			<g>
				<g>
					<path class="st0" d="M63.8,326.4c-0.1-0.1,3.1-5.8,7.2-12.7c4.1-7,7.4-12.6,7.5-12.5c0.1,0.1-3.1,5.8-7.2,12.7
						C67.3,320.8,63.9,326.4,63.8,326.4z"/>
				</g>
			</g>
		</g>
		<g>
			<g>
				<g>
					<path class="st0" d="M73,360.9c0,0,0.2-0.3,0.7-0.7c0.5-0.5,1.2-1.2,2-1.9c1.7-1.6,4-3.9,6.5-6.4c2.5-2.6,4.7-5,6.2-6.7
						c0.7-0.8,1.4-1.5,1.9-2.1c0.4-0.5,0.7-0.7,0.7-0.7c0,0-0.2,0.3-0.6,0.8c-0.4,0.5-1,1.3-1.7,2.2c-1.5,1.8-3.7,4.2-6.2,6.8
						c-2.5,2.6-4.9,4.8-6.6,6.4c-0.9,0.8-1.6,1.4-2.1,1.8C73.3,360.7,73,360.9,73,360.9z"/>
				</g>
			</g>
		</g>
		<g>
			<g>
				<g>
					<path class="st0" d="M49.7,354c0,0,0.3,0,0.9,0.2c0.7,0.2,1.5,0.4,2.5,0.6c2.1,0.6,5,1.4,8.2,2.3c3.2,0.9,6.1,1.7,8.2,2.4
						c1,0.3,1.8,0.6,2.5,0.8c0.6,0.2,0.9,0.3,0.9,0.3c0,0-0.3,0-0.9-0.2c-0.7-0.2-1.5-0.4-2.5-0.6c-2.1-0.6-5-1.4-8.2-2.3
						c-3.2-0.9-6.1-1.7-8.2-2.4c-1-0.3-1.8-0.6-2.5-0.8C50,354.2,49.7,354,49.7,354z"/>
				</g>
			</g>
		</g>
		<g>
			<g>
				<g>
					<path class="st0" d="M53.9,385.5c0,0,0.4,0.1,1.2,0.2c0.8,0.2,1.9,0.5,3.2,0.8c2.7,0.7,6.5,1.7,10.6,2.8
						c4.1,1.1,7.9,2.2,10.5,2.9c1.3,0.4,2.4,0.7,3.2,0.9c0.7,0.2,1.2,0.4,1.2,0.4c0,0-0.4-0.1-1.2-0.2c-0.8-0.2-1.9-0.5-3.2-0.8
						c-2.7-0.7-6.5-1.7-10.6-2.8c-4.1-1.1-7.8-2.2-10.5-2.9c-1.3-0.4-2.4-0.7-3.2-0.9C54.3,385.6,53.9,385.5,53.9,385.5z"/>
				</g>
			</g>
		</g>
		<g>
			<g>
				<g>
					<path class="st0" d="M83.1,393.2c0,0,0.3-0.4,0.9-1c0.6-0.6,1.5-1.5,2.5-2.5c2.1-2.1,4.9-5.1,8-8.4c3.1-3.3,5.8-6.4,7.7-8.7
						c0.9-1.1,1.7-2,2.3-2.7c0.5-0.6,0.9-1,0.9-0.9c0,0-0.2,0.4-0.8,1.1c-0.5,0.7-1.3,1.6-2.2,2.8c-1.9,2.3-4.6,5.4-7.6,8.8
						c-3.1,3.4-6,6.3-8.1,8.4c-1.1,1-2,1.9-2.6,2.4C83.5,392.9,83.1,393.2,83.1,393.2z"/>
				</g>
			</g>
		</g>
	</g>
	<g>
		<g>
			<g>
				<g>
					<g>
						<g>
							<g>
								<path class="st0" d="M70,59.6l5.4-2.4l4.5-21.7l-4.8-10.8c0,0,8.1-4.2,13.5,10.3c5.3,14.6,4.8,10.5,4.8,10.5s17.8-7.9,20-7
									c1.6,0.6,9.9,18.1,14.4,27.6c2.2,4.8,1.3,10.6-2.7,13.7c-0.6,0.4-1.2,0.8-1.8,1.1c-4.4,2-28.7,8.5-28.7,8.5l-9.4,4.2
									L70,59.6z"/>
							</g>
						</g>
					</g>
				</g>
				<g>
					<g>
						<g>
							<g>
								<polygon class="st0" points="53.2,63.6 73,99.1 82.3,95 66.1,58.7 								"/>
							</g>
						</g>
					</g>
				</g>
			</g>
		</g>
	</g>
	<g>
		<g>
			<g>
				<g>
					<g>
						<g>
							<path class="st0" d="M46.2,174.8c3.2-1.2,5.4-4.3,5.4-7.9c0-4.7-3.8-8.6-8.5-8.6c-4.7,0-8.5,3.8-8.6,8.5c0,3.6,2.2,6.7,5.4,8
								C26.9,176.7,27.5,190,27.5,190l31,0.1C58.5,190.2,59.2,176.6,46.2,174.8z"/>
						</g>
					</g>
				</g>
			</g>
		</g>
	</g>
</g>
<g id="Background_Simple" class="st1">
	<g class="st2">
		<path class="st3" d="M433.4,64.8l-0.8-1.3c-6.7-11.1-18.8-17.7-31.6-16.9c-1.6,0.1-3.3,0.3-4.9,0.7c-11.6,2.5-21.8,11.3-26,22.6
			c-2.5,6.6-3.2,14.3-7.8,19.5c-6.1,6.8-16.4,7.1-25.5,6.8c-9.1-0.3-19.5,0-25.5,6.8c-3.8,4.3-5,10.4-4.7,16.2
			c0.8,15.3,11.4,28.9,25,35.7c13.5,6.8,29.4,7.4,44.2,4.4c20.7-4.2,40.5-15.7,52.3-33.4C439.9,108,442.9,83.9,433.4,64.8z"/>
	</g>
</g>
<g id="Floor">
	<g>
		<g>
			<path class="st4" d="M455.5,466.1c0,0.1-92.4,0.3-206.4,0.3c-114,0-206.5-0.1-206.5-0.3s92.4-0.3,206.5-0.3
				C363,465.8,455.5,465.9,455.5,466.1z"/>
		</g>
	</g>
</g>
<g id="Device">
	<g>
		<g>
			<g>
				<g>
					<g>
						<g>
							<g>
								<g>
									<path class="st4" d="M238.4,466.1L103,466c-16.3,0-29.5-13.2-29.5-29.5l0.1-339.3c0-16.3,13.2-29.5,29.5-29.5l135.3,0.1
										c16.3,0,29.5,13.2,29.5,29.5l-0.1,339.3C267.9,452.9,254.7,466.1,238.4,466.1z"/>
								</g>
							</g>
						</g>
					</g>
				</g>
				<g>
					<g>
						<g>
							<g>
								<g>
									<path class="st5" d="M238.3,79.9l-26.2,0c-3.5,0-6.4,3-6.4,6.7l0,4.8c0,3.7-2.9,6.7-6.4,6.7l-51.1,0c-3.5,0-6.4-3-6.4-6.7
										l0-4.8c0-3.7-2.9-6.7-6.4-6.7l-9.2,0l-23,0c-11.4,0-20.7,9.2-20.7,20.6l-0.1,331.1c0,11.4,9.2,20.6,20.6,20.7l135.1,0.1
										c11.4,0,20.7-9.2,20.7-20.6l0.1-331.1C259,89.1,249.7,79.9,238.3,79.9z"/>
								</g>
							</g>
						</g>
					</g>
				</g>
			</g>
		</g>
	</g>
	<g>
		<g>
			<path class="st6" d="M228.5,422.2H113c-2.9,0-5.2-2.3-5.2-5.2v-31.6c0-2.9,2.3-5.2,5.2-5.2h115.4c2.9,0,5.2,2.3,5.2,5.2V417
				C233.7,419.9,231.3,422.2,228.5,422.2z M113,381.2c-2.3,0-4.2,1.9-4.2,4.2V417c0,2.3,1.9,4.2,4.2,4.2h115.4
				c2.3,0,4.2-1.9,4.2-4.2v-31.6c0-2.3-1.9-4.2-4.2-4.2H113z"/>
		</g>
		<g>
			<g>
				<g>
					<path class="st7" d="M139.6,398.7c0-5.8-5.2-10.3-11.2-9.2c-3.7,0.7-6.7,3.8-7.4,7.5c-0.4,2.3,0.1,4.6,1.1,6.4h0l0,0
						c0.4,0.6,0.8,1,1.3,1.7l5.4,7.2c0.7,0.9,2,0.9,2.7,0l5.3-7.1c0,0,1-1.2,1.4-1.8l0,0h0C139.1,402.1,139.6,400.5,139.6,398.7z
						 M130.3,402.8c-2.3,0-4.1-1.8-4.1-4.1c0-2.3,1.8-4.1,4.1-4.1c2.3,0,4.1,1.8,4.1,4.1C134.4,401,132.5,402.8,130.3,402.8z"/>
				</g>
			</g>
		</g>
		<g>
			<path class="st6" d="M216.8,407.1h-57.9c-2.7,0-5-2.2-5-5V401c0-2.7,2.2-5,5-5h57.9c2.7,0,5,2.2,5,5v1.2
				C221.8,404.9,219.5,407.1,216.8,407.1z"/>
		</g>
	</g>
	<g>
		<g>
			<path class="st4" d="M114.3,113.7h-12.6c-0.6,0-1-0.5-1-1l0,0c0-0.6,0.5-1,1-1h12.6c0.6,0,1,0.5,1,1l0,0
				C115.3,113.2,114.8,113.7,114.3,113.7z"/>
		</g>
		<g>
			<path class="st4" d="M114.2,117.8h-12.6c-0.6,0-1-0.5-1-1l0,0c0-0.6,0.5-1,1-1h12.6c0.6,0,1,0.5,1,1l0,0
				C115.2,117.3,114.7,117.8,114.2,117.8z"/>
		</g>
		<g>
			<path class="st4" d="M114,121.9h-12.6c-0.6,0-1-0.5-1-1l0,0c0-0.6,0.5-1,1-1H114c0.6,0,1,0.5,1,1l0,0
				C115.1,121.4,114.6,121.9,114,121.9z"/>
		</g>
	</g>
	<g>
		<g>
			<path class="st7" d="M107.2,337.8l9.3-16.7h2.8l4.6,16.7h-4l-2.6-11.1l-5.8,11.1H107.2z M112.6,334.9l1.6-3.4h4.3l0.8,3.4H112.6z
				"/>
			<path class="st7" d="M125.3,337.8l2.4-16.7h3.8l-1.9,13.4h6.9l-0.5,3.4H125.3z"/>
			<path class="st7" d="M137.5,337.8l2.4-16.7h3.8l-1.9,13.4h6.9l-0.5,3.4H137.5z"/>
			<path class="st7" d="M156,337.8l2.4-16.7h3.8l-2.4,16.7H156z"/>
			<path class="st7" d="M162.6,337.8L165,321h3.8l5.6,11.8h-1l1.7-11.8h3.8l-2.4,16.7h-3.8l-5.6-11.8h0.9l-1.7,11.8H162.6z"/>
			<path class="st7" d="M193.3,338.2c-1.5,0-2.7-0.3-3.8-0.9c-1.1-0.6-1.9-1.5-2.5-2.6c-0.6-1.1-0.9-2.4-0.9-4
				c0-1.3,0.2-2.6,0.6-3.8c0.4-1.2,1.1-2.3,1.9-3.2c0.8-1,1.8-1.7,3-2.3s2.4-0.8,3.9-0.8c1.5,0,2.7,0.3,3.8,0.9
				c1.1,0.6,1.9,1.5,2.5,2.6c0.6,1.1,0.9,2.5,0.9,4c0,1.3-0.2,2.6-0.7,3.8c-0.4,1.2-1.1,2.3-1.9,3.2s-1.8,1.7-3,2.2
				C196,337.9,194.7,338.2,193.3,338.2z M193.6,334.6c0.8,0,1.5-0.2,2.2-0.5c0.6-0.3,1.2-0.8,1.7-1.4c0.5-0.6,0.8-1.2,1-2
				c0.2-0.7,0.4-1.5,0.4-2.3c0-1.3-0.3-2.3-1-3.1c-0.6-0.8-1.6-1.2-2.8-1.2c-0.8,0-1.6,0.2-2.2,0.5s-1.2,0.8-1.7,1.4s-0.8,1.3-1,2
				c-0.2,0.7-0.3,1.5-0.3,2.3c0,0.9,0.1,1.6,0.4,2.2c0.3,0.6,0.7,1.1,1.3,1.5C192.1,334.4,192.8,334.6,193.6,334.6z"/>
			<path class="st7" d="M203.6,337.8l2.4-16.7h3.8l5.6,11.8h-1l1.7-11.8h3.8l-2.4,16.7h-3.8l-5.6-11.8h0.9l-1.7,11.8H203.6z"/>
			<path class="st7" d="M220.3,337.8l2.4-16.7h11.2l-0.5,3.4H226l-0.4,3.1h7.1l-0.5,3.4h-7.1l-0.5,3.6h7.5l-0.5,3.4H220.3z"/>
		</g>
	</g>
	<g>
		<g>
			<path class="st7" d="M113.6,355.7c-0.7,0-1.3-0.1-1.8-0.3c-0.5-0.2-0.9-0.5-1.3-0.9c-0.3-0.4-0.6-0.8-0.8-1.4
				c-0.2-0.5-0.3-1.1-0.3-1.7c0-0.7,0.1-1.4,0.4-2.1s0.6-1.3,1-1.9c0.5-0.6,1-1,1.7-1.4c0.7-0.3,1.4-0.5,2.3-0.5
				c1.1,0,1.9,0.3,2.6,0.8c0.7,0.5,1.1,1.3,1.3,2.2l-1.7,0.5c-0.1-0.6-0.4-1-0.8-1.3c-0.4-0.3-0.9-0.5-1.5-0.5
				c-0.6,0-1.1,0.1-1.5,0.3c-0.4,0.2-0.8,0.5-1.1,0.9c-0.3,0.4-0.5,0.8-0.7,1.3s-0.2,1-0.2,1.5c0,0.8,0.2,1.5,0.6,2
				c0.4,0.5,1,0.7,1.8,0.7c0.7,0,1.2-0.2,1.7-0.5c0.5-0.3,0.9-0.8,1.2-1.4l1.6,0.7c-0.4,0.9-1.1,1.6-1.9,2.1
				S114.6,355.7,113.6,355.7z"/>
			<path class="st7" d="M118.4,355.4l5.3-9.8h1.4l2.5,9.8h-1.9l-1.6-7.1l-3.6,7.1H118.4z M121.2,353.5l0.8-1.6h2.9l0.4,1.6H121.2z"
				/>
			<path class="st7" d="M128.7,355.4l1.4-9.8h2.6l1.6,7.1h-0.3l3.6-7.1h2.7l-1.4,9.8H137l1.1-7.6l0.2,0l-3.5,6.8H133l-1.6-6.8l0.2,0
				l-1.1,7.6H128.7z"/>
			<path class="st7" d="M140.6,355.4l1.4-9.8h3.1c1,0,1.7,0.2,2.3,0.6c0.5,0.4,0.8,1,0.8,1.8c0,0.7-0.1,1.3-0.4,1.8
				s-0.7,0.9-1.3,1.1s-1.2,0.4-2,0.4H143l-0.6,4H140.6z M143.2,349.8h1.2c0.6,0,1.1-0.1,1.5-0.4s0.5-0.6,0.5-1.1
				c0-0.4-0.1-0.6-0.4-0.8s-0.6-0.2-1.1-0.2h-1.3L143.2,349.8z"/>
			<path class="st7" d="M152.2,355.7c-1.1,0-1.9-0.3-2.5-0.8c-0.6-0.5-0.8-1.2-0.8-2.2c0-0.1,0-0.2,0-0.4c0-0.1,0-0.3,0-0.4l0.9-6.2
				h1.8l-0.8,6.1c0,0.1,0,0.3,0,0.4c0,0.1,0,0.3,0,0.4c0,0.5,0.1,0.8,0.4,1.1c0.2,0.2,0.6,0.4,1.2,0.4c0.5,0,0.9-0.1,1.3-0.3
				c0.3-0.2,0.6-0.4,0.7-0.8c0.2-0.3,0.3-0.8,0.4-1.3l0.8-6h1.8l-0.9,6.2c-0.2,1.3-0.6,2.2-1.3,2.8
				C154.4,355.4,153.5,355.7,152.2,355.7z"/>
			<path class="st7" d="M161.2,355.6c-0.7,0-1.3-0.1-1.9-0.4c-0.5-0.3-1-0.6-1.3-1.1s-0.5-1-0.5-1.6l1.8-0.3c0,0.6,0.2,1,0.6,1.3
				c0.4,0.3,0.8,0.4,1.3,0.4c0.3,0,0.6-0.1,0.9-0.2c0.3-0.1,0.4-0.3,0.6-0.5c0.1-0.2,0.2-0.4,0.2-0.7c0-0.2-0.1-0.5-0.2-0.6
				c-0.1-0.2-0.3-0.3-0.5-0.5c-0.2-0.1-0.5-0.3-0.9-0.4c-0.6-0.2-1-0.5-1.4-0.8c-0.4-0.3-0.6-0.6-0.8-0.9c-0.2-0.3-0.3-0.7-0.3-1.1
				c0-0.5,0.1-1,0.4-1.5c0.3-0.4,0.6-0.8,1.1-1s1-0.4,1.7-0.4c0.7,0,1.3,0.2,1.9,0.5c0.5,0.3,0.9,0.8,1.1,1.4l-1.5,0.8
				c-0.1-0.4-0.3-0.6-0.6-0.8c-0.3-0.2-0.5-0.3-0.9-0.3c-0.3,0-0.5,0.1-0.7,0.2s-0.4,0.3-0.5,0.4c-0.1,0.2-0.2,0.4-0.2,0.6
				c0,0.2,0.1,0.4,0.2,0.5c0.1,0.2,0.3,0.3,0.5,0.4s0.6,0.3,1,0.4c0.5,0.2,1,0.5,1.4,0.7c0.4,0.3,0.6,0.6,0.8,0.9
				c0.2,0.3,0.3,0.8,0.3,1.2c0,0.6-0.2,1.1-0.5,1.6s-0.7,0.8-1.3,1.1S161.9,355.6,161.2,355.6z"/>
			<path class="st7" d="M172.8,355.6c-0.7,0-1.3-0.1-1.9-0.4c-0.5-0.3-1-0.6-1.3-1.1s-0.5-1-0.5-1.6l1.8-0.3c0,0.6,0.2,1,0.6,1.3
				c0.4,0.3,0.8,0.4,1.3,0.4c0.3,0,0.6-0.1,0.9-0.2c0.3-0.1,0.4-0.3,0.6-0.5c0.1-0.2,0.2-0.4,0.2-0.7c0-0.2-0.1-0.5-0.2-0.6
				c-0.1-0.2-0.3-0.3-0.5-0.5c-0.2-0.1-0.5-0.3-0.9-0.4c-0.6-0.2-1-0.5-1.4-0.8c-0.4-0.3-0.6-0.6-0.8-0.9c-0.2-0.3-0.3-0.7-0.3-1.1
				c0-0.5,0.1-1,0.4-1.5c0.3-0.4,0.6-0.8,1.1-1s1-0.4,1.7-0.4c0.7,0,1.3,0.2,1.9,0.5c0.5,0.3,0.9,0.8,1.1,1.4l-1.5,0.8
				c-0.1-0.4-0.3-0.6-0.6-0.8c-0.3-0.2-0.5-0.3-0.9-0.3c-0.3,0-0.5,0.1-0.7,0.2s-0.4,0.3-0.5,0.4c-0.1,0.2-0.2,0.4-0.2,0.6
				c0,0.2,0.1,0.4,0.2,0.5c0.1,0.2,0.3,0.3,0.5,0.4s0.6,0.3,1,0.4c0.5,0.2,1,0.5,1.4,0.7c0.4,0.3,0.6,0.6,0.8,0.9
				c0.2,0.3,0.3,0.8,0.3,1.2c0,0.6-0.2,1.1-0.5,1.6s-0.7,0.8-1.3,1.1S173.5,355.6,172.8,355.6z"/>
			<path class="st7" d="M181.8,355.7c-0.8,0-1.6-0.2-2.2-0.5c-0.6-0.4-1.1-0.8-1.4-1.5c-0.3-0.6-0.5-1.4-0.5-2.3
				c0-0.8,0.1-1.5,0.4-2.2c0.2-0.7,0.6-1.3,1.1-1.9c0.5-0.6,1-1,1.7-1.3c0.7-0.3,1.4-0.5,2.2-0.5c0.8,0,1.6,0.2,2.2,0.5
				c0.6,0.3,1.1,0.8,1.4,1.5c0.3,0.6,0.5,1.4,0.5,2.3c0,0.8-0.1,1.5-0.4,2.2c-0.3,0.7-0.6,1.3-1.1,1.9s-1,1-1.7,1.3
				C183.4,355.5,182.6,355.7,181.8,355.7z M181.9,353.9c0.5,0,1-0.1,1.4-0.3c0.4-0.2,0.8-0.5,1.1-0.9s0.5-0.8,0.7-1.3
				c0.2-0.5,0.2-1,0.2-1.5c0-0.8-0.2-1.5-0.6-2s-1-0.7-1.8-0.7c-0.6,0-1,0.1-1.5,0.3c-0.4,0.2-0.8,0.5-1.1,0.9
				c-0.3,0.4-0.5,0.8-0.7,1.3s-0.2,1-0.2,1.5c0,0.6,0.1,1,0.3,1.4c0.2,0.4,0.5,0.7,0.8,0.9S181.4,353.9,181.9,353.9z"/>
			<path class="st7" d="M187.9,355.4l1.4-9.8h1.8l-1.1,8.1h4.1l-0.2,1.6H187.9z"/>
			<path class="st7" d="M198.7,355.7c-1.1,0-1.9-0.3-2.5-0.8c-0.6-0.5-0.8-1.2-0.8-2.2c0-0.1,0-0.2,0-0.4c0-0.1,0-0.3,0-0.4l0.9-6.2
				h1.8l-0.8,6.1c0,0.1,0,0.3,0,0.4c0,0.1,0,0.3,0,0.4c0,0.5,0.1,0.8,0.4,1.1c0.2,0.2,0.6,0.4,1.2,0.4c0.5,0,0.9-0.1,1.3-0.3
				c0.3-0.2,0.6-0.4,0.7-0.8c0.2-0.3,0.3-0.8,0.4-1.3l0.8-6h1.8l-0.9,6.2c-0.2,1.3-0.6,2.2-1.3,2.8
				C200.9,355.4,199.9,355.7,198.7,355.7z"/>
			<path class="st7" d="M206.4,355.4l1.1-8.1h-3l0.2-1.6h7.9l-0.2,1.6h-3l-1.1,8.1H206.4z"/>
			<path class="st7" d="M212.4,355.4l1.4-9.8h1.8l-1.4,9.8H212.4z"/>
			<path class="st7" d="M220.4,355.7c-0.8,0-1.6-0.2-2.2-0.5c-0.6-0.4-1.1-0.8-1.4-1.5c-0.3-0.6-0.5-1.4-0.5-2.3
				c0-0.8,0.1-1.5,0.4-2.2c0.2-0.7,0.6-1.3,1.1-1.9c0.5-0.6,1-1,1.7-1.3c0.7-0.3,1.4-0.5,2.2-0.5c0.8,0,1.6,0.2,2.2,0.5
				c0.6,0.3,1.1,0.8,1.4,1.5c0.3,0.6,0.5,1.4,0.5,2.3c0,0.8-0.1,1.5-0.4,2.2c-0.3,0.7-0.6,1.3-1.1,1.9s-1,1-1.7,1.3
				C221.9,355.5,221.2,355.7,220.4,355.7z M220.5,353.9c0.5,0,1-0.1,1.4-0.3c0.4-0.2,0.8-0.5,1.1-0.9s0.5-0.8,0.7-1.3
				c0.2-0.5,0.2-1,0.2-1.5c0-0.8-0.2-1.5-0.6-2s-1-0.7-1.8-0.7c-0.6,0-1,0.1-1.5,0.3c-0.4,0.2-0.8,0.5-1.1,0.9
				c-0.3,0.4-0.5,0.8-0.7,1.3s-0.2,1-0.2,1.5c0,0.6,0.1,1,0.3,1.4c0.2,0.4,0.5,0.7,0.8,0.9S220,353.9,220.5,353.9z"/>
			<path class="st7" d="M226.5,355.4l1.4-9.8h1.8l3.5,7.4h-0.4l1-7.4h1.8l-1.4,9.8h-1.9l-3.5-7.4h0.4l-1.1,7.4H226.5z"/>
		</g>
	</g>
</g>
<g id="Calendar">
	<g>
		<g>
			<g>
				<g>
					<path class="st5" d="M309.8,51.6L237.6,40c-3.6-0.6-7.1,1.9-7.7,5.5l-11.6,72.2c-0.6,3.6,1.9,7.1,5.5,7.7l2.2,0.3l20.1,3.2
						l49.9,8c3.6,0.6,7.1-1.9,7.7-5.5l11.6-72.2C315.9,55.6,313.5,52.2,309.8,51.6z"/>
				</g>
			</g>
			<g>
				<g>
					<g>
						<g>
							<g>
								<path class="st7" d="M226.7,65.9l85.4,13.7l3.4-21.2c0.5-3.2-1.6-6.2-4.8-6.7l-74.1-11.9c-3-0.5-5.9,1.6-6.4,4.6L226.7,65.9
									z"/>
							</g>
						</g>
					</g>
				</g>
				<g>
					<g>
						<g>
							<g>
								<path class="st4" d="M262,82.8l-4.7,29l-6.7-1.1l3.8-23.6l-5.8-0.9l0.9-5.4L262,82.8z"/>
							</g>
						</g>
					</g>
					<g>
						<g>
							<g>
								<path class="st4" d="M289.8,87.3l-0.7,4.4l-14.7,22.9l-7.3-1.2l14.2-21.9l-9.6-1.5l-0.8,4.7l-6-1l1.6-10.2L289.8,87.3z"/>
							</g>
						</g>
					</g>
				</g>
				<g>
					<g>
						<g>
							<g>
								<g>
									<path class="st4" d="M259.3,59.2c0,0.2,5.8,1.2,13.1,2.4c7.2,1.2,13.1,2,13.1,1.8c0-0.2-5.8-1.2-13.1-2.4
										C265.3,59.9,259.4,59,259.3,59.2z"/>
								</g>
							</g>
						</g>
					</g>
				</g>
			</g>
		</g>
		<g>
			<g>
				<g>
					<path class="st4" d="M309.8,51.6c0,0,0.3,0,0.8,0.2c0.6,0.1,1.4,0.5,2.3,1.1c0.9,0.7,1.8,1.8,2.3,3.4c0.2,0.8,0.3,1.7,0.2,2.6
						c-0.1,0.9-0.3,1.9-0.4,3c-1.3,8.4-3.2,20.5-5.6,35.4c-1.2,7.5-2.5,15.7-3.9,24.4c-0.4,2.2-0.7,4.4-1.1,6.7
						c-0.2,1.1-0.3,2.3-0.6,3.4c-0.2,1.2-0.8,2.3-1.6,3.2c-0.8,0.9-1.9,1.6-3.1,1.9c-1.2,0.4-2.5,0.3-3.7,0.1
						c-2.4-0.4-4.8-0.8-7.3-1.2c-19.7-3.2-41.5-6.6-64.3-10.3c-3-0.4-5.5-3-5.8-6c-0.1-0.7,0-1.5,0.1-2.2l0.3-2.1
						c0.2-1.4,0.4-2.8,0.7-4.2c0.9-5.5,1.8-11,2.6-16.4c1.7-10.7,3.4-21.1,5-31c0.8-4.9,1.6-9.8,2.3-14.4c0.2-1.2,0.4-2.3,0.6-3.5
						c0.1-0.6,0.2-1.2,0.4-1.7c0.2-0.5,0.5-1.1,0.8-1.6c0.7-1,1.6-1.7,2.7-2.2c1.1-0.5,2.2-0.7,3.4-0.6c8.8,1.4,17,2.7,24.4,3.9
						c14.9,2.4,27,4.4,35.4,5.8c4.2,0.7,7.4,1.2,9.6,1.6c1.1,0.2,1.9,0.3,2.5,0.4C309.5,51.5,309.8,51.6,309.8,51.6s-0.3,0-0.9-0.1
						c-0.6-0.1-1.4-0.2-2.5-0.4c-2.2-0.3-5.5-0.8-9.6-1.5c-8.4-1.3-20.5-3.2-35.4-5.6c-7.5-1.2-15.7-2.5-24.4-3.9
						c-1.1-0.1-2.2,0.1-3.2,0.6c-1,0.5-1.9,1.2-2.5,2.1c-0.3,0.4-0.6,1-0.8,1.5c-0.2,0.5-0.3,1.1-0.4,1.7c-0.2,1.2-0.4,2.3-0.6,3.5
						c-0.7,4.7-1.5,9.5-2.3,14.4c-1.6,9.9-3.2,20.2-5,31c-0.9,5.4-1.7,10.8-2.6,16.4c-0.2,1.4-0.4,2.8-0.7,4.2
						c-0.2,1.4-0.6,2.8-0.4,4.2c0.3,2.8,2.6,5.2,5.4,5.6c22.8,3.7,44.5,7.2,64.2,10.3c2.5,0.4,4.9,0.8,7.3,1.2
						c1.2,0.2,2.4,0.3,3.5-0.1c1.1-0.3,2.1-1,2.9-1.8c0.8-0.9,1.3-1.9,1.6-3c0.2-1.1,0.4-2.3,0.6-3.4c0.4-2.3,0.7-4.5,1.1-6.7
						c1.4-8.8,2.7-17,3.9-24.4c2.4-14.9,4.4-27,5.8-35.4c0.2-1,0.4-2,0.5-3c0.1-0.9,0-1.8-0.2-2.6c-0.4-1.6-1.4-2.7-2.2-3.3
						c-0.9-0.7-1.7-1-2.2-1.2c-0.3-0.1-0.5-0.1-0.6-0.2C309.9,51.6,309.8,51.6,309.8,51.6z"/>
				</g>
			</g>
		</g>
		<g>
			<g>
				<g>
					<g>
						<g>
							<path class="st6" d="M259.2,54.7l0.2,0c1.5,0.2,2.9-0.8,3.1-2.3l2.2-13.9c0.2-1.5-0.8-2.9-2.3-3.1l-0.2,0
								c-1.5-0.2-2.9,0.8-3.1,2.3L257,51.6C256.7,53.1,257.7,54.4,259.2,54.7z"/>
						</g>
					</g>
				</g>
			</g>
			<g>
				<g>
					<g>
						<g>
							<g>
								<path class="st4" d="M259.2,54.7c0-0.1-0.7-0.1-1.5-0.9c-0.4-0.4-0.7-1.1-0.7-1.8c0.1-0.8,0.3-1.7,0.5-2.7
									c0.3-2.1,0.8-4.5,1.2-7.2c0.2-1.4,0.5-2.8,0.7-4.2c0.1-0.7,0.4-1.3,1-1.7c0.6-0.4,1.3-0.6,2-0.4c0.7,0.1,1.3,0.5,1.7,1.1
									c0.4,0.6,0.4,1.3,0.3,2c-0.2,1.5-0.5,2.9-0.7,4.2c-0.4,2.7-0.8,5.1-1.1,7.2c-0.1,0.5-0.1,1-0.2,1.5
									c-0.1,0.5-0.1,0.9-0.2,1.3c-0.3,0.7-0.8,1.2-1.3,1.5C259.9,54.9,259.2,54.6,259.2,54.7c0,0,0.1,0.1,0.5,0.1
									c0.3,0,0.8,0,1.3-0.2c0.5-0.2,1.2-0.7,1.5-1.5c0.2-0.4,0.2-0.9,0.3-1.3c0.1-0.5,0.2-0.9,0.3-1.5c0.3-2.1,0.8-4.5,1.2-7.2
									c0.2-1.4,0.5-2.8,0.7-4.2c0.2-0.7,0.1-1.7-0.4-2.4c-0.4-0.7-1.2-1.3-2.1-1.4c-0.8-0.2-1.8,0-2.4,0.5
									c-0.7,0.5-1.1,1.3-1.2,2.1c-0.2,1.5-0.5,2.9-0.7,4.2c-0.4,2.7-0.8,5.1-1.1,7.2c-0.1,1-0.3,1.9-0.4,2.8c0,0.9,0.4,1.6,0.8,2
									c0.4,0.4,0.9,0.6,1.2,0.7C259.1,54.7,259.2,54.7,259.2,54.7z"/>
							</g>
						</g>
					</g>
				</g>
			</g>
		</g>
		<g>
			<g>
				<g>
					<g>
						<g>
							<path class="st6" d="M285.3,58.9l0.2,0c1.5,0.2,2.9-0.8,3.1-2.3l2.2-13.9c0.2-1.5-0.8-2.9-2.3-3.1l-0.2,0
								c-1.5-0.2-2.9,0.8-3.1,2.3L283,55.8C282.8,57.2,283.8,58.6,285.3,58.9z"/>
						</g>
					</g>
				</g>
			</g>
			<g>
				<g>
					<g>
						<g>
							<g>
								<path class="st4" d="M285.3,58.9c0-0.1-0.7-0.1-1.5-0.9c-0.4-0.4-0.7-1.1-0.7-1.8c0.1-0.8,0.3-1.7,0.5-2.7
									c0.3-2.1,0.8-4.5,1.2-7.2c0.2-1.4,0.5-2.8,0.7-4.2c0.1-0.7,0.4-1.3,1-1.7c0.6-0.4,1.3-0.6,2-0.4c0.7,0.1,1.3,0.5,1.7,1.1
									c0.4,0.6,0.4,1.3,0.3,2c-0.2,1.5-0.5,2.9-0.7,4.2c-0.4,2.7-0.8,5.1-1.1,7.2c-0.1,0.5-0.1,1-0.2,1.5
									c-0.1,0.5-0.1,0.9-0.2,1.3c-0.3,0.7-0.8,1.2-1.3,1.5C286,59.1,285.3,58.8,285.3,58.9c0,0,0.1,0.1,0.5,0.1
									c0.3,0,0.8,0,1.3-0.2c0.5-0.2,1.2-0.7,1.5-1.5c0.2-0.4,0.2-0.9,0.3-1.3c0.1-0.5,0.2-0.9,0.3-1.5c0.3-2.1,0.8-4.5,1.2-7.2
									c0.2-1.4,0.5-2.8,0.7-4.2c0.2-0.7,0.1-1.7-0.4-2.4c-0.4-0.7-1.2-1.3-2.1-1.4c-0.8-0.2-1.8,0-2.4,0.5
									c-0.7,0.5-1.1,1.3-1.2,2.1c-0.2,1.5-0.5,2.9-0.7,4.2c-0.4,2.7-0.8,5.1-1.1,7.2c-0.1,1-0.3,1.9-0.4,2.8c0,0.9,0.4,1.6,0.8,2
									c0.4,0.4,0.9,0.6,1.2,0.7C285.1,58.9,285.3,58.9,285.3,58.9z"/>
							</g>
						</g>
					</g>
				</g>
			</g>
		</g>
	</g>
</g>
<g id="Character_4">
	<g>
		<g>
			<g>
				<g>
					<path class="st5" d="M447.9,422.5H301.9c-5.5,0-10-4.5-10-10v-46.8c0-5.5,4.5-10,10-10h146.1c5.5,0,10,4.5,10,10v46.8
						C457.9,418,453.5,422.5,447.9,422.5z"/>
				</g>
				<g>
					<g>
						<path class="st4" d="M447.9,422.5c0,0,0.1,0,0.3,0c0.2,0,0.5,0,0.9-0.1c0.8-0.1,1.9-0.3,3.2-1c1.3-0.6,2.9-1.8,4-3.6
							c0.6-0.9,1.1-2,1.3-3.2c0.3-1.2,0.2-2.6,0.2-4c0-5.7,0-12.6,0-20.7c0-4,0-8.3,0-12.9c0-2.3,0-4.6,0-7c0-1.2,0-2.4,0-3.7
							c0-1.2-0.1-2.5-0.5-3.6c-0.8-2.4-2.5-4.5-4.8-5.7c-1.2-0.6-2.4-1-3.8-1.1c-1.3-0.1-2.7,0-4.1,0c-5.5,0-11.3,0-17.3,0
							c-11.9,0-24.7,0-38.1,0c-26.8,0-56.3,0-87.3,0c-1.9,0-3.8,0.6-5.3,1.6c-1.6,1-2.8,2.5-3.6,4.2c-0.4,0.9-0.7,1.7-0.8,2.7
							c-0.1,0.9-0.1,1.9-0.1,2.8c0,1.9,0,3.8,0,5.7c0,7.5,0,15,0,22.3c0,3.7,0,7.3,0,10.9c0,1.8,0,3.6,0,5.3
							c-0.1,1.8,0.1,3.5,0.8,5.1c1.4,3.2,4.5,5.4,7.8,5.7c0.8,0.1,1.7,0.1,2.5,0.1c0.9,0,1.7,0,2.6,0c1.7,0,3.4,0,5.1,0
							c26.8,0,51,0,71.3,0.1c20.3,0,36.7,0.1,48.1,0.1c5.7,0,10.1,0,13.1,0c1.5,0,2.6,0,3.4,0C447.5,422.5,447.9,422.5,447.9,422.5
							s-0.4,0-1.2,0c-0.8,0-1.9,0-3.4,0c-3,0-7.4,0-13.1,0c-11.4,0-27.8,0-48.1,0.1c-20.3,0-44.5,0-71.3,0.1c-1.7,0-3.4,0-5.1,0
							c-0.8,0-1.7,0-2.6,0c-0.9,0-1.7,0-2.6-0.1c-3.5-0.4-6.8-2.7-8.2-6c-0.8-1.6-0.9-3.5-0.9-5.3c0-1.8,0-3.6,0-5.3
							c0-3.6,0-7.2,0-10.9c0-7.3,0-14.7,0-22.3c0-1.9,0-3.8,0-5.7c0-0.9,0-1.9,0.1-2.9c0.1-1,0.4-1.9,0.8-2.8
							c0.8-1.8,2.1-3.3,3.8-4.4c1.7-1.1,3.6-1.7,5.6-1.7c31,0,60.5,0,87.3,0c13.4,0,26.2,0,38.1,0c6,0,11.7,0,17.3,0
							c1.4,0,2.7,0,4.1,0c1.4,0.1,2.7,0.5,3.9,1.1c2.4,1.2,4.2,3.4,5,5.9c0.4,1.2,0.5,2.5,0.5,3.8c0,1.2,0,2.5,0,3.7
							c0,2.4,0,4.8,0,7c0,4.6,0,8.9,0,12.9c0,8.1,0,15,0,20.7c0,1.4,0.1,2.8-0.2,4c-0.3,1.2-0.8,2.3-1.4,3.3c-1.2,1.9-2.8,3-4.1,3.6
							c-1.4,0.6-2.5,0.8-3.3,0.9C448.3,422.5,447.9,422.5,447.9,422.5z"/>
					</g>
				</g>
			</g>
			<g>
				<g>
					<path class="st7" d="M434.3,403.5c-6.8,0-12.3-5.5-12.3-12.3c0-6.8,5.5-12.3,12.3-12.3c6.8,0,12.3,5.5,12.3,12.3
						C446.6,398,441.1,403.5,434.3,403.5z M434.3,381c-5.7,0-10.3,4.6-10.3,10.3c0,5.7,4.6,10.3,10.3,10.3c5.7,0,10.3-4.6,10.3-10.3
						C444.6,385.6,440,381,434.3,381z"/>
				</g>
			</g>
			<g>
				<path class="st6" d="M408.3,399.6h-42.4c-3.8,0-6.8-3-6.8-6.8l0,0c0-3.8,3-6.8,6.8-6.8h42.4c3.8,0,6.8,3,6.8,6.8l0,0
					C415.1,396.6,412,399.6,408.3,399.6z"/>
			</g>
		</g>
		<g>
			<g>
				<g>
					
						<ellipse transform="matrix(0.9488 -0.316 0.316 0.9488 -106.7861 123.4551)" class="st5" cx="327.3" cy="391" rx="25.5" ry="25.5"/>
				</g>
				<g>
					<g>
						<path class="st4" d="M352.8,392.7c0,0,0-0.1,0-0.4c0-0.3,0-0.7,0-1.2c0-0.3,0-0.6,0-0.9c0-0.3-0.1-0.7-0.1-1.1
							c-0.1-0.8-0.1-1.7-0.4-2.7c-0.3-2-1.1-4.4-2.4-6.9c-1.3-2.5-3.2-5.2-6-7.6c-2.7-2.3-6.2-4.4-10.3-5.4c-1-0.2-2.1-0.5-3.2-0.6
							c-0.5-0.1-1.1-0.1-1.6-0.2c-0.6,0-1.1,0-1.7,0c-0.3,0-0.6,0-0.8,0l-0.9,0.1c-0.6,0.1-1.1,0.1-1.7,0.2
							c-1.1,0.2-2.3,0.4-3.4,0.8c-1.2,0.3-2.3,0.8-3.4,1.2c-0.6,0.3-1.1,0.6-1.6,0.8c-0.6,0.3-1.1,0.6-1.6,1c-1.1,0.6-2,1.5-3,2.2
							c-0.9,0.9-1.9,1.7-2.7,2.8c-1.6,2-3.1,4.2-4.1,6.7c-1,2.5-1.6,5.1-1.8,7.9c-0.1,2.7,0.1,5.5,0.8,8.1c0.6,2.6,1.8,5,3.2,7.2
							c0.7,1.1,1.5,2.1,2.3,3.1c0.9,0.9,1.7,1.9,2.7,2.6c0.5,0.4,0.9,0.8,1.5,1.1c0.5,0.3,1,0.7,1.5,1c1.1,0.6,2.1,1.2,3.2,1.7
							c1.1,0.5,2.2,0.8,3.3,1.2c0.6,0.2,1.1,0.3,1.7,0.4l0.8,0.2c0.3,0.1,0.6,0.1,0.8,0.1c0.6,0.1,1.1,0.1,1.7,0.2
							c0.6,0,1.1,0,1.7,0c1.1,0.1,2.2-0.1,3.2-0.2c4.2-0.5,7.9-2.1,10.9-4c3-2,5.3-4.4,6.9-6.8c1.6-2.4,2.7-4.6,3.3-6.6
							c0.4-0.9,0.5-1.8,0.7-2.6c0.1-0.4,0.2-0.7,0.2-1.1c0-0.3,0.1-0.6,0.1-0.9c0.1-0.5,0.1-0.9,0.2-1.2
							C352.7,392.8,352.8,392.7,352.8,392.7s0,0.1,0,0.4c0,0.3-0.1,0.7-0.1,1.2c0,0.3-0.1,0.6-0.1,0.9c0,0.3-0.1,0.7-0.2,1.1
							c-0.2,0.8-0.3,1.7-0.7,2.6c-0.6,2-1.6,4.2-3.2,6.6c-1.6,2.4-3.9,4.8-6.9,6.9c-3,2-6.8,3.6-11.1,4.1c-1.1,0.1-2.2,0.2-3.3,0.2
							c-0.6,0-1.1,0-1.7,0c-0.6-0.1-1.1-0.1-1.7-0.2c-0.3,0-0.6-0.1-0.9-0.1l-0.8-0.2c-0.6-0.1-1.1-0.2-1.7-0.4
							c-1.1-0.4-2.3-0.7-3.4-1.2c-1.1-0.4-2.2-1.1-3.2-1.7c-0.5-0.3-1-0.7-1.5-1.1c-0.5-0.3-1-0.7-1.5-1.2c-1-0.8-1.9-1.7-2.7-2.7
							c-0.8-1-1.6-2-2.3-3.1c-1.4-2.2-2.6-4.7-3.2-7.3c-0.7-2.6-0.9-5.4-0.8-8.2c0.2-2.8,0.8-5.5,1.9-8c1-2.5,2.5-4.8,4.1-6.8
							c0.8-1,1.8-1.9,2.7-2.8c1-0.8,2-1.6,3.1-2.3c0.5-0.3,1.1-0.7,1.6-1c0.6-0.3,1.1-0.6,1.7-0.8c1.1-0.5,2.3-1,3.4-1.2
							c1.1-0.4,2.3-0.5,3.5-0.8c0.6-0.1,1.2-0.1,1.7-0.2l0.9-0.1c0.3,0,0.6,0,0.9,0c0.6,0,1.1,0,1.7,0c0.6,0,1.1,0.1,1.7,0.2
							c1.1,0.1,2.2,0.4,3.2,0.6c4.2,1,7.7,3.1,10.4,5.5c2.7,2.4,4.7,5.1,6,7.7c1.3,2.6,2,5,2.3,7c0.2,1,0.3,1.9,0.3,2.7
							c0,0.4,0.1,0.7,0.1,1.1c0,0.3,0,0.6,0,0.9c0,0.5,0,0.9,0,1.2C352.8,392.5,352.8,392.7,352.8,392.7z"/>
					</g>
				</g>
			</g>
			<g>
				<g>
					<path class="st7" d="M305.8,404.2l11.2-3.4l18.2,2.8l12.3,2.7c0,0-6.8,10.1-20.2,9.9c-7.1-0.1-12.7-2.9-16.3-6
						C307.4,407.3,305.8,404.2,305.8,404.2z"/>
				</g>
				<g>
					<g>
						<path class="st8" d="M341.8,390.5c-0.1-3.4-0.7-10.5-1.4-16.8c-0.8-6.8-6.6-12-13.5-11.8l-0.7,0c-7.4,0.6-10.9,7.3-10.1,14.6
							l1.6,25.5l10.2,6.5l7.1-3l-0.1-6.6C334.8,398.9,341.9,397.6,341.8,390.5z"/>
					</g>
					<g>
						<g>
							<g>
								<g>
									<g>
										<g>
											<g>
												<path class="st4" d="M337.8,380.5c0,0.5-0.4,1-0.9,1.1c-0.6,0-1-0.3-1.1-0.9c0-0.5,0.4-1,0.9-1.1
													C337.3,379.6,337.8,380,337.8,380.5z"/>
											</g>
										</g>
									</g>
								</g>
							</g>
						</g>
					</g>
					<g>
						<g>
							<g>
								<g>
									<g>
										<g>
											<g>
												<g>
													<path class="st4" d="M339,376.8c-0.1,0.1-0.9-0.4-2-0.4c-1.1,0-1.9,0.6-2,0.5c-0.1-0.1,0.1-0.3,0.4-0.6
														c0.3-0.3,0.9-0.5,1.6-0.5c0.7,0,1.3,0.2,1.6,0.5C338.9,376.5,339,376.7,339,376.8z"/>
												</g>
											</g>
										</g>
									</g>
								</g>
							</g>
						</g>
					</g>
					<g>
						<g>
							<g>
								<g>
									<g>
										<g>
											<g>
												<path class="st4" d="M327.8,380.5c0,0.5-0.4,1-0.9,1.1c-0.6,0-1-0.3-1.1-0.9c0-0.5,0.4-1,0.9-1.1
													C327.3,379.6,327.8,380,327.8,380.5z"/>
											</g>
										</g>
									</g>
								</g>
							</g>
						</g>
					</g>
					<g>
						<g>
							<g>
								<g>
									<g>
										<g>
											<g>
												<g>
													<path class="st4" d="M328.1,376.8c-0.1,0.1-0.9-0.3-2-0.2c-1.1,0.1-1.8,0.8-1.9,0.7c-0.1-0.1,0-0.3,0.3-0.6
														c0.3-0.3,0.9-0.6,1.5-0.7c0.7-0.1,1.3,0.1,1.6,0.3C328,376.5,328.2,376.7,328.1,376.8z"/>
												</g>
											</g>
										</g>
									</g>
								</g>
							</g>
						</g>
					</g>
					<g>
						<g>
							<g>
								<g>
									<g>
										<g>
											<g>
												<path class="st4" d="M332.4,385.7c0-0.1,0.7-0.2,1.8-0.4c0.3,0,0.5-0.1,0.6-0.3c0.1-0.2-0.1-0.5-0.2-0.8
													c-0.3-0.7-0.6-1.4-0.9-2.1c-1.2-3-2.1-5.4-2-5.5c0.1,0,1.2,2.3,2.4,5.3c0.3,0.7,0.6,1.4,0.9,2.1
													c0.1,0.3,0.3,0.7,0.2,1.1c-0.1,0.2-0.3,0.4-0.4,0.4c-0.2,0.1-0.3,0.1-0.5,0.1C333.1,385.7,332.4,385.7,332.4,385.7z"/>
											</g>
										</g>
									</g>
								</g>
							</g>
						</g>
					</g>
					<g>
						<g>
							<g>
								<path class="st4" d="M328.1,372.1c-0.1,0.3-1.2,0.2-2.5,0.4c-1.3,0.2-2.3,0.6-2.5,0.3c-0.1-0.1,0.1-0.4,0.5-0.7
									c0.4-0.3,1.1-0.6,1.8-0.7c0.8-0.1,1.5,0,1.9,0.2C327.9,371.7,328.2,372,328.1,372.1z"/>
							</g>
						</g>
					</g>
					<g>
						<g>
							<g>
								<path class="st4" d="M338.7,372.6c-0.2,0.3-0.9,0-1.8,0c-0.9,0-1.7,0.2-1.8,0c-0.1-0.1,0-0.4,0.4-0.6
									c0.3-0.2,0.9-0.4,1.5-0.4c0.6,0,1.2,0.2,1.5,0.5C338.6,372.2,338.8,372.5,338.7,372.6z"/>
							</g>
						</g>
					</g>
					<g>
						<g>
							<g>
								<g>
									<g>
										<g>
											<g>
												<g>
													<g>
														<g>
															<g>
																<g>
																	<g>
																		<g>
																			<g>
																				<g>
																					<g>
																						<g>
																							<path class="st8" d="M316.7,381.8c-0.1,0-4.9-1.3-4.6,3.5c0.3,4.8,5.1,3.5,5.1,3.4
																								C317.2,388.6,316.7,381.8,316.7,381.8z"/>
																						</g>
																					</g>
																				</g>
																			</g>
																		</g>
																	</g>
																</g>
															</g>
														</g>
													</g>
												</g>
											</g>
										</g>
									</g>
								</g>
							</g>
						</g>
					</g>
					<g>
						<g>
							<g>
								<g>
									<g>
										<g>
											<g>
												<g>
													<g>
														<g>
															<g>
																<g>
																	<g>
																		<g>
																			<g>
																				<g>
																					<g>
																						<g>
																							<g>
																								<path class="st9" d="M315.6,387c0,0-0.1,0.1-0.2,0.1c-0.1,0.1-0.4,0.1-0.6,0.1c-0.5-0.2-1-0.9-1.1-1.8
																									c0-0.4,0-0.9,0.2-1.2c0.1-0.4,0.3-0.6,0.6-0.7c0.3-0.1,0.4,0.1,0.5,0.2c0.1,0.1,0,0.2,0.1,0.2
																									c0,0,0.1-0.1,0-0.3c0-0.1-0.1-0.2-0.2-0.3c-0.1-0.1-0.3-0.1-0.5-0.1c-0.4,0-0.7,0.4-0.8,0.8
																									c-0.2,0.4-0.3,0.9-0.2,1.4c0.1,1,0.6,1.9,1.4,2c0.3,0.1,0.6-0.1,0.8-0.2C315.6,387.1,315.7,387,315.6,387z"
																									/>
																							</g>
																						</g>
																					</g>
																				</g>
																			</g>
																		</g>
																	</g>
																</g>
															</g>
														</g>
													</g>
												</g>
											</g>
										</g>
									</g>
								</g>
							</g>
						</g>
					</g>
					<g>
						<path class="st4" d="M340.9,365.4c-0.2-0.9-1-1.8-1.9-1.9c0-0.1-1-0.6-1.8-1.2c-0.8-0.6-1-1.9-1.7-1.3c0-1.5-1.8-2.6-3.1-1.9
							c0-0.9-1.2-1.1-2.1-1.4c-0.8-0.2-1.1-0.3-1.5,0.4c-1.1-1.7-3.9-1.9-5.1-0.3c-2-0.6-4.3,0.5-5,2.4c-1.6,0.1-3,1.3-3.4,2.9
							c-1,0.1-1.3,0.9-1.7,1.8c-0.4,0.9-1,2-0.4,2.8c-1.2,0.6-1.4,2.6-0.3,3.4c-0.3,0.1-0.5,0.3-0.7,0.6c-1,0.6-1.3,2.2-0.6,3.2
							c-0.7,0.6-1,1.7-0.7,2.5c0.3,0.9,1.3,1.5,2.2,1.5c-0.8,1.1,0.2,2.7,0.8,3c0,0,2-0.8,2.3,0.6c0,0,0,0,0,0
							c-0.1,0.6,0.6,1.2,1.2,0.9c0.6-0.3,0.9-0.9,1.2-1.4c0.4-0.6,0.8-1.2,1-1.9c0.2-0.7-0.1-1.6-0.7-1.9c0.8-0.3,1.3-1.2,1.5-2
							c0.1-0.9,0-1.8-0.2-2.6c-0.3-1.3-0.5-2.5-0.8-3.8c1.8-0.1,3.4-1.3,4.1-2.9c1.3,0.9,3.4,0.4,4-1.1c0.6,1.7,2.7,2.7,4.5,2.1
							c-0.2,1,1.7,1.9,2.7,2.1c1,0.2,2.2-0.5,2.2-0.5s1.7,1,2.6,0.6c0.9-0.4,2.1-1.6,1.5-2.5C340.7,367.5,341.1,366.3,340.9,365.4z"
							/>
					</g>
					<g>
						<g>
							<g>
								<g>
									<path class="st10" d="M331.6,358.9c0,0-0.2-0.2-0.6-0.3c-0.2-0.1-0.5-0.1-0.7,0.1c-0.3,0.1-0.5,0.4-0.6,0.7l-0.1,0.3
										l-0.2-0.2c-0.3-0.4-0.8-0.8-1.5-0.8c-0.7,0-1.4,0.5-1.6,1.3l-0.1,0.3l-0.2-0.3c-0.4-0.5-1-0.8-1.7-0.8
										c-0.7,0-1.3,0.4-1.7,1c-0.2,0.2-0.2,0.5-0.3,0.8l0,0.2l-0.2,0c-0.9-0.2-2,0.4-2.3,1.1c-0.3,0.8-0.1,1.7,0.4,2.3l0.2,0.2
										l-0.3,0.1c-0.6,0.1-1.1,0.5-1.4,1c-0.3,0.4-0.4,0.9-0.4,1.3c0,0.8,0.3,1.2,0.3,1.2c0,0-0.1-0.1-0.2-0.3
										c-0.1-0.2-0.2-0.5-0.3-0.9c0-0.4,0-0.9,0.3-1.4c0.3-0.5,0.8-1,1.6-1.1l-0.1,0.2c-0.6-0.6-0.9-1.6-0.5-2.6
										c0.4-1,1.5-1.6,2.7-1.4l-0.2,0.2c0-0.3,0.2-0.7,0.3-0.9c0.4-0.7,1.2-1.2,2-1.2c0.8,0,1.5,0.3,2,0.9l-0.3,0.1
										c0.3-0.9,1.1-1.5,1.9-1.5c0.8,0,1.4,0.5,1.7,1l-0.2,0c0.1-0.4,0.4-0.7,0.7-0.8c0.3-0.1,0.6-0.1,0.8,0
										c0.2,0.1,0.3,0.2,0.4,0.3C331.6,358.9,331.6,358.9,331.6,358.9z"/>
								</g>
							</g>
						</g>
					</g>
					<g>
						<path class="st4" d="M341.6,386.6c-0.7-0.5-2-0.1-2.2,0.7c-0.4-0.6-1.2-0.9-1.9-0.8c-0.7,0.1-1.3,0.7-1.5,1.3
							c-0.3-1-1.9-1.3-2.6-0.4c-0.3-0.4-0.8-0.7-1.3-0.5c0.1-0.5-0.2-1-0.6-1.2c-0.4-0.2-1-0.2-1.3,0.1c-0.5-1-2.1-1.2-2.9-0.5
							c-0.1-0.5-0.6-0.8-1.1-0.8c-0.5,0-0.9,0.4-1,0.8c-0.5-0.6-1.3-0.8-2-0.5c0-0.7-0.8-1.3-1.5-1.1c0.2-0.6-0.7-0.9-1.2-1.3
							c-0.2-0.2-0.3-0.5-0.5-0.6c-0.2-0.2-0.6-0.2-0.7,0c0.1-0.5-0.2-1-0.6-1.2c-0.5-0.2-1,0.1-1.2,0.5c-0.1,0.3-0.1,0.6-0.2,0.9
							c-0.1,0.9-0.7,2,0,2.7c0.1,0.1,0.3,0.2,0.3,0.4c0.1,0.3-0.2,0.5-0.2,0.8c0,0.3,0.3,0.6,0.4,0.9c0.2,0.4,0,1,0,1.4
							c0,0.5,0.2,1.1,0.7,1.1c-0.4,0.7-0.1,1.7,0.5,2.1c-0.4,0.8,0.1,1.9,1,2.2c-0.3,0.3-0.3,0.8-0.1,1.1c0.2,0.3,0.6,0.5,1,0.7
							c-0.3,0.2-0.4,0.7-0.2,1c0.2,0.3,0.6,0.5,1,0.6c0.2,0,0.3,0.1,0.4,0.2c0.2,0.3-0.1,0.6,0,0.9c0.1,0.5,0.7,0.6,0.9,1
							c0.2,0.4-0.1,0.9,0.3,1.2c0.2,0.2,0.5,0.2,0.8,0.2c0.5,0.2,0.7,0.7,0.9,1.1c0.5,0.7,1.5,1,2.4,1.3c0.4,0.1,0.9,0.2,1.4,0.3
							c0.9,0.2,1.8,0.3,2.7,0.4c0.5,0.1,1,0.1,1.3-0.3c0.6,0.8,2.1,0.6,2.5-0.3c0.8,0.2,1.7-0.1,2.4-0.5c0.3-0.1,0.5-0.2,0.8-0.4
							c0.8-0.3,1.7-0.8,1.9-1.6c1-0.1,1.7-1.5,1.3-2.4c0.4,0.1,0.7-0.3,0.8-0.6c0.1-0.4-0.1-0.7-0.1-1.1c-0.3-1.5,0.5-3.1,0.3-4.6
							c-0.1-1.1-0.8-2.1-0.5-3.2c0.1-0.2,0.2-0.4,0.2-0.6c0-0.2-0.2-0.5-0.4-0.4c0.3-0.6-0.3-1.4-1-1.3"/>
					</g>
					<g>
						<g>
							<g>
								<g>
									<g>
										<g>
											<path class="st5" d="M328.8,386.8c0.2,0,0.2,1.2,1.3,2c1,0.8,2.3,0.6,2.3,0.8c0,0.1-0.3,0.2-0.8,0.3
												c-0.5,0-1.3-0.1-1.9-0.6c-0.6-0.5-0.9-1.2-1-1.7C328.6,387,328.7,386.7,328.8,386.8z"/>
										</g>
									</g>
								</g>
							</g>
						</g>
					</g>
					<g>
						<g>
							<path class="st10" d="M322.3,394.8c0.1,0-0.4-1.1-0.5-2.5c0-1.4,0.4-2.5,0.3-2.5c0,0-0.2,0.2-0.3,0.7
								c-0.1,0.5-0.3,1.1-0.2,1.8c0,0.7,0.2,1.4,0.3,1.8C322.1,394.6,322.2,394.9,322.3,394.8z"/>
						</g>
					</g>
					<g>
						<g>
							<path class="st10" d="M321.2,393.1c0,0-0.1-0.2-0.3-0.5c-0.1-0.3-0.2-0.9-0.1-1.4c0.1-1.1,0.4-2,0.3-2.1c0,0-0.4,0.9-0.5,2
								c-0.1,0.6,0,1.1,0.2,1.5C320.9,393,321.1,393.1,321.2,393.1z"/>
						</g>
					</g>
					<g>
						<g>
							<path class="st10" d="M320,392.2c0.1,0-0.5-0.9-0.5-2.1c-0.1-1.2,0.4-2.1,0.3-2.1c0,0-0.2,0.2-0.3,0.6
								c-0.1,0.4-0.3,0.9-0.2,1.6c0,0.6,0.2,1.2,0.4,1.5C319.8,392,319.9,392.2,320,392.2z"/>
						</g>
					</g>
					<g>
						<g>
							<path class="st10" d="M339.7,399.4c0,0,0.3-0.1,0.7-0.4c0.4-0.4,0.7-1,0.8-1.7c0.2-0.7,0.2-1.4,0.2-1.9
								c0-0.5-0.1-0.8-0.2-0.8c-0.1,0,0.2,1.2-0.2,2.7c-0.2,0.7-0.5,1.3-0.8,1.7C340,399.2,339.7,399.4,339.7,399.4z"/>
						</g>
					</g>
					<g>
						<g>
							<path class="st10" d="M338.7,399.1c0,0,0.2-0.1,0.5-0.4c0.3-0.3,0.7-0.7,0.9-1.3c0.2-0.6,0.3-1.2,0.3-1.6
								c0-0.4-0.1-0.7-0.1-0.7c0,0,0,0.3,0,0.7c0,0.4-0.1,1-0.3,1.5c-0.2,0.6-0.5,1-0.8,1.3C338.8,399,338.6,399.1,338.7,399.1z"/>
						</g>
					</g>
					<g>
						<g>
							<g>
								<path class="st10" d="M340.5,369.4c0,0-1.6-2.5-4.8-3.5c-5.9-1.7-14.1-2.4-22.8,6.2l-1.3,0.6c0,0-0.3-2.9,0.2-5.1
									c0.3-1.4,2.9-9.9,12.3-10.7C324.1,356.9,338.5,354.5,340.5,369.4z"/>
							</g>
						</g>
					</g>
					<g class="st11">
						<g>
							<path d="M340.5,369.4c0,0-1.6-2.5-4.8-3.5c-5.9-1.7-14.1-2.4-22.8,6.2l-1.3,0.6c0,0-0.3-2.9,0.2-5.1
								c0.3-1.4,2.9-9.9,12.3-10.7C324.1,356.9,338.5,354.5,340.5,369.4z"/>
						</g>
					</g>
					<g>
						<path class="st10" d="M312.9,372.1c3.6-3.9,8.2-6.2,13-7.9c4.8-1.8,12.4-3,17.6-3.3c1.5-0.1,3.1-0.1,4.6,0.5
							c1.4,0.6,2.7,1.9,2.8,3.4c0.1,1.9-3.8,4.1-5.5,4.9c-1.8,0.8-5.4,2.2-5.4,2.2s-1-4.4-4.4-5.6
							C328.3,363.6,312.6,372.2,312.9,372.1z"/>
					</g>
					<g>
						<path class="st4" d="M340.9,366.6c-0.4-1.2-1.7-1.9-3-1.7c0.3-0.3,0.2-0.9,0-1.3c-0.3-0.4-0.7-0.6-1.1-0.7
							c-1.6-0.4-3.3,0.6-3.9,2c-0.7-0.7-1.8-1.1-3.1-0.9c-1.4,0.3-2.2,1.4-2.2,2.2c0,0.9,0.5,1.5,1.3,1.9c0.8,0.5,2,0.1,2.9-0.3
							c0.3,0.9,1.1,1.6,2,1.8c0.9,0.2,1.9,0,2.6-0.6c0.8,1,2.3,1.2,3.4,0.6C340.8,369.2,341.3,367.7,340.9,366.6z"/>
					</g>
				</g>
			</g>
		</g>
	</g>
</g>
<g id="Character_3">
	<g>
		<g>
			<g>
				<path class="st12" d="M326.2,309.2"/>
			</g>
		</g>
		<g>
			<g>
				<g>
					<path class="st5" d="M447.9,332.3H298.3c-5.5,0-10-4.5-10-10v-48.2c0-5.5,4.5-10,10-10h149.6c5.5,0,10,4.5,10,10v48.2
						C457.9,327.9,453.5,332.3,447.9,332.3z"/>
				</g>
				<g>
					<g>
						<path class="st4" d="M447.9,332.3c0,0,0.1,0,0.3,0c0.2,0,0.5,0,0.9-0.1c0.8-0.1,1.9-0.3,3.3-1c1.3-0.7,2.9-1.9,4-3.8
							c0.6-0.9,1-2.1,1.2-3.3c0.2-1.3,0.1-2.6,0.2-4.1c0-5.8,0-12.9,0-21.1c0-4.1,0-8.5,0-13.2c0-2.3,0-4.7,0-7.2c0-1.2,0-2.5,0-3.7
							c0-1.3-0.1-2.5-0.5-3.7c-0.8-2.4-2.6-4.6-5-5.7c-1.2-0.6-2.5-0.9-3.9-1c-1.4,0-2.8,0-4.2,0c-5.7,0-11.6,0-17.6,0
							c-12.2,0-25.2,0-38.9,0c-27.4,0-57.6,0-89.2,0c-1,0-1.9,0.1-2.8,0.4c-0.9,0.3-1.8,0.7-2.6,1.2c-0.8,0.5-1.5,1.2-2.1,1.9
							c-0.6,0.7-1.1,1.6-1.5,2.4c-0.4,0.9-0.6,1.8-0.7,2.8c-0.1,0.9,0,1.9,0,2.9c0,1.9,0,3.9,0,5.8c0,7.7,0,15.3,0,22.8
							c0,3.7,0,7.4,0,11.1c0,1.8,0,3.7,0,5.5c-0.1,1.8,0.1,3.6,0.9,5.2c1.4,3.2,4.7,5.5,8.1,5.7c3.5,0.1,7,0,10.4,0
							c27.4,0,52.1,0,72.9,0.1c20.7,0,37.5,0.1,49.1,0.1c5.8,0,10.3,0,13.4,0c1.5,0,2.7,0,3.5,0
							C447.5,332.3,447.9,332.3,447.9,332.3s-0.4,0-1.2,0c-0.8,0-2,0-3.5,0c-3.1,0-7.6,0-13.4,0c-11.6,0-28.4,0-49.1,0.1
							c-20.7,0-45.4,0-72.9,0.1c-3.4,0-6.9,0-10.4,0c-3.6-0.3-7-2.6-8.5-6c-0.8-1.7-1-3.6-0.9-5.4c0-1.8,0-3.6,0-5.5
							c0-3.7,0-7.4,0-11.1c0-7.5,0-15.1,0-22.8c0-1.9,0-3.9,0-5.8c0-1,0-1.9,0.1-2.9c0.1-1,0.4-2,0.7-2.9c0.4-0.9,0.9-1.8,1.5-2.6
							c0.6-0.8,1.4-1.5,2.2-2c0.8-0.6,1.8-1,2.7-1.3c1-0.3,2-0.4,3-0.4c31.7,0,61.8,0,89.2,0c13.7,0,26.7,0,38.9,0
							c6.1,0,12,0,17.6,0c1.4,0,2.8,0,4.2,0c1.4,0.1,2.8,0.4,4,1c2.5,1.2,4.4,3.4,5.2,5.9c0.4,1.2,0.5,2.6,0.5,3.8
							c0,1.3,0,2.5,0,3.7c0,2.5,0,4.9,0,7.2c0,4.7,0,9.1,0,13.2c0,8.2,0,15.3,0,21.1c0,1.4,0.1,2.8-0.2,4.1
							c-0.2,1.3-0.7,2.4-1.3,3.4c-1.2,1.9-2.8,3.1-4.1,3.8c-1.4,0.7-2.6,0.9-3.3,1C448.3,332.3,447.9,332.3,447.9,332.3z"/>
					</g>
				</g>
			</g>
			<g>
				<g>
					<path class="st7" d="M433,311.9L433,311.9c-6.3-0.5-11.1-6-10.7-12.3l0,0c0.5-6.3,6-11.1,12.3-10.7l0,0
						c6.3,0.5,11.1,6,10.7,12.3l0,0C444.9,307.6,439.4,312.4,433,311.9z"/>
				</g>
				<g>
					<g>
						<polygon class="st5" points="433.1,306.5 426.2,301.1 428.1,298.7 432.7,302.3 439.4,294.7 441.7,296.7 						"/>
					</g>
				</g>
			</g>
			<g>
				<path class="st6" d="M407.2,309h-43.3c-3.8,0-6.9-3.1-6.9-6.9l0,0c0-3.8,3.1-6.9,6.9-6.9h43.3c3.8,0,6.9,3.1,6.9,6.9l0,0
					C414.2,305.9,411.1,309,407.2,309z"/>
			</g>
		</g>
		<g>
			<g>
				<g>
					<g>
						
							<ellipse transform="matrix(0.7769 -0.6296 0.6296 0.7769 -115.3253 270.813)" class="st5" cx="324.5" cy="298.1" rx="26" ry="26"/>
					</g>
				</g>
				<g>
					<g>
						<path class="st4" d="M301.3,309.8c0,0,0.1,0.1,0.2,0.4c0.1,0.3,0.4,0.6,0.6,1.1c0.1,0.2,0.3,0.5,0.5,0.8
							c0.2,0.3,0.4,0.6,0.6,0.9c0.5,0.7,1,1.4,1.7,2.2c1.3,1.6,3.2,3.3,5.7,4.9c2.5,1.6,5.6,3,9.2,3.7c3.6,0.7,7.8,0.7,12-0.5
							c1-0.3,2.1-0.6,3.1-1.1c0.5-0.2,1-0.4,1.5-0.7c0.5-0.3,1-0.6,1.5-0.8c0.2-0.1,0.5-0.3,0.8-0.4l0.7-0.5c0.5-0.3,1-0.7,1.4-1
							c0.9-0.8,1.9-1.5,2.7-2.4c0.9-0.9,1.6-1.9,2.4-2.8c0.4-0.5,0.7-1.1,1-1.6c0.4-0.5,0.6-1.1,0.9-1.7c0.6-1.1,1.1-2.3,1.5-3.6
							c0.4-1.3,0.8-2.5,1-3.8c0.4-2.6,0.6-5.3,0.2-8.1c-0.4-2.7-1.2-5.4-2.4-7.9c-1.3-2.5-2.9-4.8-4.8-6.8c-0.5-0.5-1-0.9-1.5-1.4
							c-0.5-0.4-1.1-0.8-1.6-1.3c-0.3-0.2-0.5-0.4-0.8-0.6l-0.8-0.5l-0.8-0.5l-0.9-0.5c-1.2-0.7-2.4-1.1-3.6-1.6
							c-1.3-0.4-2.5-0.8-3.8-0.9c-0.6-0.1-1.3-0.2-1.9-0.3c-0.6,0-1.3-0.1-1.9-0.2c-1.3,0-2.5,0-3.7,0.2c-1.2,0.1-2.4,0.4-3.6,0.6
							c-0.6,0.1-1.1,0.3-1.7,0.5l-0.8,0.3c-0.3,0.1-0.5,0.2-0.8,0.3c-0.5,0.2-1.1,0.5-1.6,0.7c-0.5,0.2-1,0.5-1.5,0.8
							c-1,0.5-1.9,1.2-2.8,1.8c-3.5,2.6-6,5.9-7.7,9.2c-1.7,3.3-2.4,6.6-2.7,9.6c-0.2,2.9,0,5.5,0.5,7.5c0.2,1,0.5,1.9,0.7,2.7
							c0.1,0.4,0.2,0.7,0.3,1.1c0.1,0.3,0.2,0.6,0.4,0.8c0.2,0.5,0.4,0.9,0.5,1.2C301.3,309.7,301.3,309.8,301.3,309.8
							s-0.1-0.1-0.2-0.4c-0.1-0.3-0.3-0.6-0.5-1.1c-0.1-0.3-0.2-0.5-0.4-0.8c-0.1-0.3-0.2-0.7-0.4-1.1c-0.2-0.8-0.6-1.6-0.7-2.7
							c-0.5-2-0.7-4.6-0.5-7.6c0.2-3,1-6.3,2.7-9.7c1.7-3.3,4.2-6.7,7.7-9.3c0.9-0.6,1.8-1.3,2.8-1.8c0.5-0.3,1-0.6,1.5-0.8
							c0.5-0.2,1.1-0.5,1.6-0.7c0.3-0.1,0.5-0.2,0.8-0.3l0.8-0.3c0.6-0.2,1.1-0.4,1.7-0.5c1.2-0.2,2.4-0.6,3.6-0.6
							c1.2-0.2,2.5-0.2,3.8-0.2c0.6,0,1.3,0.1,1.9,0.2c0.6,0,1.3,0.2,1.9,0.3c1.3,0.2,2.5,0.6,3.8,1c1.2,0.5,2.5,0.9,3.7,1.6
							l0.9,0.5l0.9,0.5l0.9,0.5c0.3,0.2,0.6,0.4,0.8,0.6c0.5,0.4,1.1,0.8,1.6,1.3c0.5,0.5,1,1,1.5,1.4c1.9,2,3.6,4.3,4.9,6.9
							c1.2,2.6,2.1,5.3,2.5,8.1c0.4,2.8,0.3,5.5-0.2,8.2c-0.2,1.3-0.6,2.6-1,3.9c-0.5,1.2-0.9,2.5-1.6,3.6c-0.3,0.6-0.6,1.2-0.9,1.7
							c-0.4,0.5-0.7,1.1-1,1.6c-0.8,1-1.5,2-2.4,2.9c-0.8,0.9-1.8,1.7-2.7,2.5c-0.5,0.4-1,0.7-1.5,1l-0.7,0.5
							c-0.2,0.2-0.5,0.3-0.8,0.4c-0.5,0.3-1,0.6-1.5,0.8c-0.5,0.3-1.1,0.5-1.6,0.7c-1,0.5-2.1,0.8-3.2,1.1
							c-4.2,1.2-8.5,1.1-12.1,0.4c-3.7-0.7-6.8-2.2-9.3-3.8c-2.5-1.6-4.4-3.4-5.7-5c-0.7-0.8-1.2-1.6-1.7-2.2
							c-0.2-0.3-0.4-0.6-0.6-0.9c-0.2-0.3-0.3-0.6-0.4-0.8c-0.3-0.5-0.5-0.8-0.6-1.1C301.4,309.9,301.3,309.8,301.3,309.8z"/>
					</g>
				</g>
			</g>
			<g>
				<path class="st7" d="M308.4,318.5c0,0,1.2-0.4,5.5-1.7c4.3-1.3,18.3,0.7,18.3,0.7l8,1.7c0,0-5.7,5.9-16.7,5.1
					C312.7,323.5,308.4,318.5,308.4,318.5z"/>
			</g>
			<g>
				<g>
					<g>
						<g>
							<g>
								<g>
									<g>
										<g>
											<g>
												<path class="st4" d="M338.4,285c1.6,0.1,3.2-1.1,3.5-2.7c0.3-1.6-0.8-3.3-2.3-3.7c1-1.1,1.1-2.7,0.4-4
													c-0.7-1.2-2.2-2-3.6-1.7c-0.1-1.4-1-2.7-2.3-3.3c-1.3-0.6-2.8-0.5-4,0.2c-1.6-1.3-4.1-1.2-5.7,0.1
													c-1.4-0.2-2.8,0.6-3.4,1.8c-0.6,1.3-0.3,2.9,0.7,3.8"/>
											</g>
										</g>
									</g>
								</g>
								<g>
									<g>
										<g>
											<g>
												<g>
													<g>
														<g>
															<path class="st13" d="M333.1,317.9l-0.1-5.8c0,0,7.7-1.4,7.6-8.9c-0.1-3.6-0.9-11.1-1.6-17.8
																c-0.8-7.2-7.1-12.6-14.3-12.3l-0.7,0c-7.8,0.7-11.5,7.7-10.6,15.5l1.1,28.1c0,0,9.8,5.2,12,4.5
																C328.6,320.5,333.1,317.9,333.1,317.9z"/>
														</g>
													</g>
												</g>
											</g>
										</g>
										<g>
											<g>
												<g>
													<g>
														<g>
															<g>
																<g>
																	<path class="st14" d="M333,312.2c0,0-4.4,0.4-9.6-2.5c0,0,2.1,5.5,9.6,4.5V312.2z"/>
																</g>
															</g>
														</g>
													</g>
												</g>
											</g>
										</g>
										<g>
											<g>
												<g>
													<g>
														<g>
															<g>
																<g>
																	<g>
																		<g>
																			<g>
																				<path class="st4" d="M335.9,292.9c0,0.6-0.4,1.1-1,1.1c-0.6,0.1-1.1-0.4-1.1-0.9c0-0.6,0.4-1.1,1-1.1
																					C335.3,292,335.9,292.4,335.9,292.9z"/>
																			</g>
																		</g>
																	</g>
																</g>
															</g>
														</g>
													</g>
												</g>
											</g>
										</g>
										<g>
											<g>
												<g>
													<g>
														<g>
															<g>
																<g>
																	<g>
																		<g>
																			<g>
																				<g>
																					<path class="st4" d="M337.4,289.2c-0.1,0.1-1-0.4-2.1-0.4c-1.1,0-2,0.6-2.1,0.5c-0.1-0.1,0.1-0.3,0.4-0.6
																						c0.4-0.3,1-0.6,1.7-0.6c0.7,0,1.3,0.2,1.7,0.5C337.4,288.9,337.5,289.1,337.4,289.2z"/>
																				</g>
																			</g>
																		</g>
																	</g>
																</g>
															</g>
														</g>
													</g>
												</g>
											</g>
										</g>
										<g>
											<g>
												<g>
													<g>
														<g>
															<g>
																<g>
																	<g>
																		<g>
																			<g>
																				<path class="st4" d="M325.5,293.1c0,0.6-0.4,1.1-1,1.1c-0.6,0.1-1.1-0.4-1.1-0.9c0-0.6,0.4-1.1,1-1.1
																					C325,292.1,325.5,292.5,325.5,293.1z"/>
																			</g>
																		</g>
																	</g>
																</g>
															</g>
														</g>
													</g>
												</g>
											</g>
										</g>
										<g>
											<g>
												<g>
													<g>
														<g>
															<g>
																<g>
																	<g>
																		<g>
																			<g>
																				<g>
																					<path class="st4" d="M326.1,289.8c-0.1,0.1-1-0.4-2.1-0.4c-1.1,0-2,0.6-2.1,0.5c-0.1-0.1,0.1-0.3,0.4-0.6
																						c0.4-0.3,1-0.6,1.7-0.6c0.7,0,1.3,0.2,1.7,0.5C326.1,289.5,326.2,289.7,326.1,289.8z"/>
																				</g>
																			</g>
																		</g>
																	</g>
																</g>
															</g>
														</g>
													</g>
												</g>
											</g>
										</g>
										<g>
											<g>
												<g>
													<g>
														<g>
															<g>
																<g>
																	<g>
																		<g>
																			<g>
																				<path class="st4" d="M330.6,298.2c0-0.1,0.7-0.2,1.9-0.4c0.3,0,0.6-0.1,0.6-0.3c0.1-0.2-0.1-0.5-0.2-0.9
																					c-0.3-0.7-0.6-1.4-0.9-2.2c-1.3-3.1-2.3-5.7-2.2-5.8c0.1-0.1,1.3,2.5,2.6,5.6c0.3,0.8,0.6,1.5,0.9,2.2
																					c0.1,0.3,0.3,0.7,0.2,1.1c-0.1,0.2-0.3,0.4-0.5,0.4c-0.2,0.1-0.4,0.1-0.5,0.1
																					C331.3,298.2,330.6,298.3,330.6,298.2z"/>
																			</g>
																		</g>
																	</g>
																</g>
															</g>
														</g>
													</g>
												</g>
											</g>
										</g>
										<g>
											<g>
												<g>
													<g>
														<g>
															<g>
																<path class="st4" d="M326.4,285.9c-0.1,0.3-1.1,0-2.4,0c-1.2,0-2.2,0.2-2.4-0.1c-0.1-0.1,0.2-0.4,0.6-0.7
																	c0.4-0.2,1.1-0.5,1.8-0.4c0.7,0,1.4,0.2,1.8,0.5C326.2,285.5,326.4,285.7,326.4,285.9z"/>
															</g>
														</g>
													</g>
												</g>
											</g>
										</g>
										<g>
											<g>
												<g>
													<g>
														<g>
															<g>
																<path class="st4" d="M337.4,285.1c-0.2,0.3-1.2,0-2.3,0.1c-1.1,0-2.1,0.2-2.3,0c-0.1-0.1,0-0.4,0.5-0.7
																	c0.4-0.3,1.1-0.5,1.9-0.5c0.8,0,1.5,0.2,1.9,0.5C337.4,284.7,337.5,285,337.4,285.1z"/>
															</g>
														</g>
													</g>
												</g>
											</g>
										</g>
										<g>
											<g>
												<g>
													<g>
														<g>
															<path class="st13" d="M314.8,295.9c-0.1-1.2-1.1-2-2.3-1.9c-1.4,0.2-2.9,1-2.7,3.9c0.3,5.1,5.4,3.7,5.4,3.6
																C315.2,301.4,314.9,298,314.8,295.9z"/>
														</g>
													</g>
												</g>
											</g>
										</g>
										<g>
											<g>
												<g>
													<g>
														<g>
															<path class="st14" d="M313.9,299.6c0,0-0.1,0.1-0.2,0.1c-0.1,0.1-0.4,0.1-0.7,0.1c-0.6-0.2-1.1-1-1.2-1.9
																c0-0.5,0-0.9,0.2-1.3c0.1-0.4,0.4-0.7,0.6-0.7c0.3-0.1,0.5,0.1,0.5,0.2c0.1,0.1,0.1,0.2,0.1,0.2c0,0,0.1-0.1,0-0.3
																c0-0.1-0.1-0.2-0.2-0.3c-0.1-0.1-0.3-0.1-0.5-0.1c-0.4,0.1-0.7,0.4-0.9,0.9c-0.2,0.4-0.3,0.9-0.2,1.4
																c0.1,1,0.7,2,1.4,2.1c0.4,0.1,0.7-0.1,0.8-0.2C313.9,299.8,313.9,299.6,313.9,299.6z"/>
														</g>
													</g>
												</g>
											</g>
										</g>
									</g>
									<g>
										<g>
											<path class="st4" d="M334.3,275c-0.1-0.1-0.1-0.2-0.2-0.4c-0.6-0.8-1.6-1.3-2.6-1.4c-0.6-0.3-1.2-0.5-1.8-0.7
												c-0.8-1.2-2.1-2-3.5-2.1c-1.6-0.1-3.2,0.7-4.1,2.1c-0.2,0-0.4,0.1-0.6,0.1c-1.1-0.7-2.5-1-3.7-0.6
												c-1.4,0.4-2.6,1.5-3.1,2.8c-1.3-0.3-2.7,0.2-3.4,1.3c-0.8,1-0.8,2.5-0.1,3.6c-0.9,0.6-1.7,1.5-1.6,2.6c0,1,1,1.9,1.9,1.8
												c-0.1,2.5,0.3,5.3,0.5,7.9c0.2,1.8,2.5,2.8,2.7,4c1,6.2,2.9,2.7,3.3-10.2c0.1-0.1,0.3-0.2,0.4-0.3
												c0.3-0.3,0.3-0.6,0.5-0.8c0.3-0.3,0.8-0.3,1.2-0.2c1.5,0.1,3-1,3.3-2.5c0.4,0.6,1.3,0.5,1.8,0.1c0.6-0.4,0.9-1,1.3-1.5
												c0.4-0.5,1-1,1.7-0.9c0.4,0,0.7,0.3,1.1,0.2c0.7-0.1,1-0.9,1-1.6c0.1-0.6,0.1-1.2,0.5-1.6c0.4-0.2,0.8-0.4,1.3-0.4
												c0.3,0,0.5,0.1,0.8,0.1c0.1,0,0.2,0,0.4,0c0.2,0,0.3,0.1,0.5,0.2c2.3,1,4.4,5.6,4.4,5.6
												C338.1,279.1,336.4,276.7,334.3,275z"/>
										</g>
									</g>
								</g>
							</g>
						</g>
					</g>
					<g>
						<g>
							<g>
								<path class="st5" d="M319,274.2c0,0,0-0.1,0.1-0.1c0-0.1,0.1-0.2,0.2-0.4c0.2-0.3,0.6-0.7,1.1-1.1c0.6-0.4,1.4-0.6,2.3-0.6
									c0.9,0.1,1.9,0.5,2.6,1.3l-0.2,0c0.3-0.4,0.7-0.7,1.2-1c1.1-0.7,2.4-0.9,3.4-0.6c1.1,0.3,1.9,1,2.2,1.7
									c0.4,0.7,0.4,1.5,0.3,1.9c0,0.2-0.1,0.4-0.1,0.5c-0.1,0.1-0.1,0.2-0.1,0.2c0,0,0.1-0.2,0.2-0.7c0.1-0.4,0-1.1-0.3-1.8
									c-0.4-0.7-1.1-1.4-2.2-1.6c-1-0.3-2.2-0.1-3.3,0.6c-0.4,0.3-0.8,0.6-1.1,0.9l-0.1,0.1l-0.1-0.1c-0.7-0.8-1.6-1.2-2.5-1.3
									c-0.9-0.1-1.7,0.2-2.2,0.5c-0.6,0.3-0.9,0.7-1.2,1C319.1,274,319,274.2,319,274.2z"/>
							</g>
						</g>
					</g>
					<g>
						<g>
							<g>
								<path class="st5" d="M310.4,280.1C310.4,280.1,310.4,280,310.4,280.1c0.1-0.1,0.1-0.2,0.2-0.3c0.2-0.2,0.4-0.4,0.8-0.6
									c0.4-0.2,0.9-0.4,1.5-0.4c0.6,0,1.3,0.2,1.9,0.6l-0.1,0c0.2-1,0.9-2,2-2.6c0.5-0.3,1.2-0.5,1.8-0.6c0.7-0.1,1.3-0.1,2,0.1
									c1.3,0.3,2.5,0.9,3.5,1.5l-0.1,0.1c0.4-1.2,1.3-2,2.2-2.5c0.9-0.5,1.9-0.5,2.6-0.4c0.7,0.1,1.3,0.4,1.6,0.6
									c0.2,0.1,0.3,0.2,0.4,0.3c0.1,0.1,0.1,0.1,0.1,0.1c0,0-0.2-0.1-0.5-0.3c-0.3-0.2-0.9-0.4-1.6-0.5c-0.7-0.1-1.6,0-2.5,0.4
									c-0.9,0.5-1.7,1.3-2.1,2.4l0,0.1l-0.1-0.1c-1-0.6-2.1-1.2-3.4-1.5c-0.7-0.1-1.3-0.2-2-0.1c-0.6,0.1-1.2,0.3-1.7,0.6
									c-1,0.6-1.8,1.5-2,2.5l0,0.1l-0.1-0.1c-0.6-0.5-1.2-0.6-1.8-0.6c-0.6,0-1.1,0.1-1.5,0.3
									C310.7,279.6,310.4,280.1,310.4,280.1z"/>
							</g>
						</g>
					</g>
					<g>
						<g>
							<g>
								<path class="st10" d="M330.8,276.3c0,0,0,0.1-0.1,0.2c0,0.1-0.1,0.3-0.2,0.6c-0.1,0.3-0.1,0.6-0.2,1
									c-0.1,0.4-0.1,0.8-0.5,1.3c-0.2,0.2-0.4,0.4-0.7,0.4c-0.3,0-0.6,0-0.9,0c-0.3,0-0.6,0-0.9,0.1c-0.3,0.1-0.5,0.4-0.7,0.6
									c-0.2,0.3-0.4,0.5-0.6,0.8c-0.2,0.3-0.4,0.6-0.7,0.8c-0.3,0.2-0.7,0.4-1.1,0.4c-0.2,0-0.4,0-0.6,0c-0.2,0-0.4-0.2-0.6-0.4
									l0.2,0c-0.1,0.3-0.2,0.6-0.3,0.9c-0.2,0.3-0.4,0.5-0.6,0.7c-0.5,0.4-1.1,0.7-1.8,0.8c-0.3,0.1-0.5,0.1-0.8,0.1
									c-0.3,0-0.5-0.1-0.7,0c-0.2,0.1-0.4,0.2-0.5,0.5c-0.2,0.2-0.3,0.4-0.5,0.6c-0.7,0.7-1.6,1.3-2.6,1.3c-1,0-1.8-0.4-2.4-0.9
									c-0.6-0.5-1-1.2-1.2-1.9l0.1,0.1c-0.6,0.2-1.3,0-1.7-0.3c-0.4-0.3-0.6-0.7-0.7-1.1c-0.1-0.3-0.1-0.6,0-0.8
									c0-0.1,0-0.2,0.1-0.2c0,0,0-0.1,0-0.1c0,0-0.2,0.4,0,1.1c0.1,0.3,0.3,0.7,0.7,1c0.4,0.3,1,0.5,1.6,0.3l0.1,0l0,0.1
									c0.2,0.6,0.6,1.3,1.2,1.8c0.6,0.5,1.4,0.9,2.3,0.9c0.9,0,1.8-0.6,2.5-1.3c0.2-0.2,0.3-0.4,0.5-0.6c0.1-0.2,0.4-0.4,0.6-0.5
									c0.1,0,0.3-0.1,0.4-0.1l0.4,0c0.3,0,0.5,0,0.8-0.1c0.6-0.1,1.2-0.4,1.7-0.8c0.2-0.2,0.4-0.4,0.6-0.7
									c0.1-0.3,0.2-0.5,0.3-0.8l0.1-0.2l0.1,0.2c0.2,0.3,0.6,0.3,1,0.3c0.4,0,0.7-0.2,1-0.4c0.3-0.2,0.5-0.5,0.7-0.8
									c0.2-0.3,0.4-0.6,0.7-0.8c0.2-0.3,0.5-0.5,0.8-0.6c0.3-0.1,0.7-0.1,0.9-0.1c0.3,0,0.6,0.1,0.8,0c0.3,0,0.5-0.2,0.6-0.3
									c0.3-0.4,0.4-0.8,0.5-1.2c0.1-0.4,0.1-0.7,0.2-1c0.1-0.3,0.1-0.5,0.2-0.6C330.8,276.3,330.8,276.2,330.8,276.3z"/>
							</g>
						</g>
					</g>
				</g>
				<g>
					<g>
						<g>
							<path class="st14" d="M327.1,300.3c-0.4,1.3,0,2.7,1.2,3.4c0.4,0.2,1,0.3,1.4,0.1c0.6-0.2,1.1-0.5,1.3-1.1
								c0.2-0.6,0.4-1.1,0.3-1.7C330.1,300.8,328.3,300.6,327.1,300.3z"/>
						</g>
					</g>
					<g>
						<g>
							<g>
								<path class="st4" d="M330.8,303.2c0,0-0.1,0.1-0.3,0.3c-0.2,0.2-0.6,0.4-1.1,0.4c-0.5,0.1-1.1-0.1-1.7-0.5
									c-0.5-0.4-0.9-1.1-1-1.9c0-0.4,0-0.8,0.1-1.1l0-0.1l0.1,0c1.2,0.2,2.3,0.4,3,0.6c0.8,0.2,1.2,0.3,1.2,0.3c0,0-0.5,0-1.2-0.1
									c-0.8-0.1-1.8-0.3-3-0.5l0.1-0.1c-0.1,0.3-0.1,0.7-0.1,1.1c0.1,0.7,0.4,1.4,0.9,1.7c0.5,0.4,1.1,0.5,1.5,0.5
									c0.5,0,0.8-0.2,1.1-0.3C330.7,303.3,330.8,303.1,330.8,303.2z"/>
							</g>
						</g>
					</g>
				</g>
			</g>
		</g>
	</g>
</g>
<g id="Character_2">
	<g>
		<g>
			<g>
				<g>
					<path class="st5" d="M445.7,242H299.7c-5.5,0-10-4.5-10-10v-46.7c0-5.5,4.5-10,10-10h145.9c5.5,0,10,4.5,10,10v46.7
						C455.7,237.5,451.2,242,445.7,242z"/>
				</g>
				<g>
					<g>
						<path class="st4" d="M445.7,242c0,0,0.1,0,0.3,0c0.2,0,0.5,0,0.9-0.1c0.8-0.1,1.9-0.3,3.2-1c1.3-0.6,2.9-1.8,4-3.6
							c0.6-0.9,1.1-2,1.3-3.2c0.3-1.2,0.2-2.6,0.2-4c0-5.7,0-12.6,0-20.7c0-4,0-8.3,0-12.9c0-2.3,0-4.6,0-7c0-1.2,0-2.4,0-3.7
							c0-1.2-0.1-2.5-0.5-3.6c-0.8-2.4-2.5-4.5-4.8-5.7c-1.2-0.6-2.4-1-3.8-1.1c-1.3-0.1-2.7,0-4.1,0c-5.5,0-11.3,0-17.3,0
							c-11.9,0-24.7,0-38.1,0c-26.8,0-56.3,0-87.2,0c-1.9,0-3.8,0.6-5.3,1.6c-1.6,1-2.8,2.5-3.6,4.2c-0.4,0.9-0.7,1.7-0.8,2.7
							c-0.1,0.9-0.1,1.9-0.1,2.8c0,1.9,0,3.8,0,5.7c0,7.5,0,15,0,22.3c0,3.6,0,7.3,0,10.8c0,1.8,0,3.6,0,5.3
							c-0.1,1.8,0.1,3.5,0.8,5.1c1.4,3.2,4.5,5.4,7.8,5.7c0.8,0.1,1.7,0.1,2.5,0.1c0.9,0,1.7,0,2.6,0c1.7,0,3.4,0,5.1,0
							c26.8,0,51,0,71.2,0.1c20.3,0,36.7,0.1,48,0.1c5.7,0,10.1,0,13.1,0c1.5,0,2.6,0,3.4,0C445.3,241.9,445.7,242,445.7,242
							s-0.4,0-1.2,0c-0.8,0-1.9,0-3.4,0c-3,0-7.4,0-13.1,0c-11.4,0-27.8,0-48,0.1c-20.3,0-44.4,0-71.2,0.1c-1.7,0-3.4,0-5.1,0
							c-0.8,0-1.7,0-2.6,0c-0.8,0-1.7,0-2.6-0.1c-3.5-0.4-6.8-2.7-8.2-6c-0.8-1.6-0.9-3.5-0.9-5.3c0-1.8,0-3.6,0-5.3
							c0-3.6,0-7.2,0-10.8c0-7.3,0-14.7,0-22.3c0-1.9,0-3.8,0-5.7c0-0.9,0-1.9,0.1-2.9c0.1-1,0.4-1.9,0.8-2.8
							c0.8-1.8,2.1-3.3,3.8-4.4c1.7-1.1,3.6-1.7,5.6-1.7c30.9,0,60.4,0,87.2,0c13.4,0,26.1,0,38.1,0c6,0,11.7,0,17.3,0
							c1.4,0,2.7,0,4.1,0c1.4,0.1,2.7,0.5,3.9,1.1c2.4,1.2,4.2,3.4,5,5.9c0.4,1.2,0.5,2.5,0.5,3.8c0,1.2,0,2.5,0,3.7
							c0,2.4,0,4.8,0,7c0,4.6,0,8.9,0,12.9c0,8.1,0,15,0,20.7c0,1.4,0.1,2.8-0.2,4c-0.3,1.2-0.8,2.3-1.4,3.3c-1.2,1.9-2.8,3-4.1,3.6
							c-1.4,0.6-2.5,0.8-3.3,0.9C446.1,242,445.7,242,445.7,242z"/>
					</g>
				</g>
			</g>
			<g>
				<g>
					<path class="st7" d="M432.6,222.9L432.6,222.9c-6.2-0.4-10.9-5.8-10.4-12.1v0c0.4-6.2,5.8-10.9,12.1-10.4l0,0
						c6.2,0.4,10.9,5.8,10.4,12.1l0,0C444.2,218.7,438.8,223.4,432.6,222.9z"/>
				</g>
				<g>
					<g>
						<polygon class="st5" points="432.7,217.6 425.9,212.3 427.8,210 432.3,213.5 438.8,206.1 441,208.1 						"/>
					</g>
				</g>
			</g>
			<g>
				<path class="st6" d="M407.3,220.1h-42.4c-3.8,0-6.8-3-6.8-6.8v0c0-3.8,3-6.8,6.8-6.8h42.4c3.8,0,6.8,3,6.8,6.8v0
					C414.1,217,411.1,220.1,407.3,220.1z"/>
			</g>
		</g>
		<g>
			<g>
				<g>
					<g>
						
							<ellipse transform="matrix(0.7902 -0.6129 0.6129 0.7902 -59.8898 243.9608)" class="st5" cx="326.4" cy="209.4" rx="25.5" ry="25.5"/>
					</g>
				</g>
				<g>
					<g>
						<path class="st4" d="M303.7,220.9c0,0,0.1,0.1,0.2,0.4c0.1,0.3,0.3,0.6,0.6,1.1c0.1,0.2,0.3,0.5,0.4,0.8
							c0.2,0.3,0.4,0.6,0.6,0.9c0.5,0.6,1,1.4,1.6,2.1c1.3,1.6,3.1,3.3,5.5,4.8c2.4,1.6,5.5,2.9,9,3.6c3.5,0.7,7.6,0.7,11.7-0.5
							c1-0.3,2.1-0.6,3.1-1.1c0.5-0.2,1-0.4,1.5-0.7c0.5-0.3,1-0.5,1.5-0.8c0.2-0.1,0.5-0.3,0.7-0.4l0.7-0.5c0.5-0.3,1-0.6,1.4-1
							c0.9-0.8,1.8-1.5,2.6-2.4c0.9-0.8,1.6-1.8,2.3-2.8c0.4-0.5,0.7-1,1-1.5c0.4-0.5,0.6-1.1,0.9-1.6c0.6-1.1,1-2.3,1.5-3.5
							c0.3-1.2,0.7-2.5,0.9-3.7c0.4-2.6,0.6-5.2,0.2-7.9c-0.4-2.7-1.2-5.3-2.4-7.8c-1.3-2.5-2.8-4.7-4.7-6.6c-0.5-0.5-1-0.9-1.5-1.4
							c-0.5-0.4-1-0.8-1.6-1.2c-0.3-0.2-0.5-0.4-0.8-0.6l-0.8-0.5l-0.8-0.5l-0.9-0.4c-1.1-0.6-2.4-1.1-3.5-1.5
							c-1.2-0.3-2.4-0.7-3.7-0.9c-0.6-0.1-1.2-0.2-1.8-0.3c-0.6,0-1.2-0.1-1.8-0.1c-1.2,0-2.4,0-3.6,0.2c-1.2,0.1-2.3,0.4-3.5,0.6
							c-0.6,0.1-1.1,0.3-1.7,0.5l-0.8,0.3c-0.3,0.1-0.5,0.2-0.8,0.3c-0.5,0.2-1,0.4-1.5,0.7c-0.5,0.2-1,0.5-1.5,0.8
							c-1,0.5-1.8,1.2-2.7,1.8c-3.4,2.5-5.9,5.8-7.5,9c-1.6,3.2-2.4,6.5-2.6,9.3c-0.2,2.9,0,5.4,0.5,7.3c0.2,1,0.5,1.9,0.7,2.6
							c0.1,0.4,0.2,0.7,0.3,1c0.1,0.3,0.2,0.6,0.3,0.8c0.2,0.5,0.4,0.9,0.5,1.1C303.7,220.7,303.7,220.9,303.7,220.9
							s-0.1-0.1-0.2-0.4c-0.1-0.3-0.3-0.6-0.5-1.1c-0.1-0.2-0.2-0.5-0.4-0.8c-0.1-0.3-0.2-0.7-0.3-1c-0.2-0.7-0.5-1.6-0.7-2.6
							c-0.5-2-0.7-4.5-0.5-7.4c0.2-2.9,1-6.2,2.6-9.4c1.6-3.3,4.1-6.6,7.6-9.1c0.9-0.6,1.8-1.3,2.8-1.8c0.5-0.3,1-0.6,1.5-0.8
							c0.5-0.2,1-0.5,1.6-0.7c0.3-0.1,0.5-0.2,0.8-0.3l0.8-0.3c0.6-0.2,1.1-0.4,1.7-0.5c1.2-0.2,2.3-0.5,3.5-0.6
							c1.2-0.2,2.4-0.2,3.7-0.2c0.6,0,1.2,0.1,1.9,0.1c0.6,0,1.2,0.2,1.9,0.3c1.3,0.2,2.5,0.6,3.7,0.9c1.2,0.5,2.4,0.9,3.6,1.6
							l0.9,0.4l0.8,0.5l0.8,0.5c0.3,0.2,0.6,0.4,0.8,0.6c0.5,0.4,1.1,0.8,1.6,1.2c0.5,0.5,1,0.9,1.5,1.4c1.9,2,3.5,4.2,4.8,6.7
							c1.2,2.5,2,5.2,2.4,7.9c0.4,2.7,0.3,5.4-0.2,8c-0.2,1.3-0.6,2.6-1,3.8c-0.5,1.2-0.9,2.4-1.5,3.5c-0.3,0.6-0.6,1.1-0.9,1.6
							c-0.3,0.5-0.7,1.1-1,1.6c-0.8,1-1.5,2-2.4,2.8c-0.8,0.9-1.8,1.6-2.6,2.4c-0.5,0.4-1,0.7-1.4,1l-0.7,0.5
							c-0.2,0.2-0.5,0.3-0.7,0.4c-0.5,0.3-1,0.6-1.5,0.8c-0.5,0.3-1,0.5-1.5,0.7c-1,0.5-2.1,0.8-3.1,1.1c-4.1,1.2-8.3,1.1-11.8,0.4
							c-3.6-0.7-6.7-2.1-9.1-3.7c-2.4-1.6-4.3-3.3-5.5-4.9c-0.7-0.8-1.2-1.5-1.6-2.2c-0.2-0.3-0.4-0.6-0.6-0.9
							c-0.2-0.3-0.3-0.6-0.4-0.8c-0.2-0.5-0.4-0.8-0.6-1.1C303.8,221,303.7,220.9,303.7,220.9z"/>
					</g>
				</g>
			</g>
			<g>
				<path class="st7" d="M307.3,226.1l9.8-3.4l15.6-0.6l14.4,2.8c0,0-7,10.8-19.9,10.5C314.3,234.9,307.3,226.1,307.3,226.1z"/>
			</g>
			<g>
				<g>
					<g>
						<g>
							<g>
								<g>
									<path class="st4" d="M336.9,187.1c3.3,0.1,6.1,5,5.6,7.7c-0.2,1.3-0.8,2.9,0.2,3.9c1.1,1,3.3,0.9,4.3,1.9
										c0,0,1.3,1.3,1.2,3c-0.1,1.7,0.1,3.9,1.5,4.5l-6.7,2.4c-0.7-0.7-1-1.8-1.7-2.5c0.8,0.7,1.6,3.3-2,3.6l-2.2-2
										c-6.1,1.6-12.5,3.5-17.3,0.9"/>
								</g>
							</g>
						</g>
					</g>
				</g>
				<g>
					<g>
						<g>
							<g>
								<g>
									<path class="st4" d="M305.9,201.7c0.4-1.3,1.2-2.4,1.5-3.7c0.7-2.8-0.7-6,0.8-8.5c1-1.8,3.1-2.6,5.1-3.2
										c2-0.6,3.9-0.9,5.3-2.3c1.1-1,1.7-2.5,2.8-3.5c1.5-1.5,3.8-1.9,5.9-2c2.2-0.1,4.5,0.2,6.4,1.2c2,1,3.6,2.9,3.9,5
										c0.2,1.1,0,2.2,0.3,3.2c0.3,1.1,1.2,2,1.7,3.1c1.1,2.2,0.4,5.2-1.5,6.7l-15.4,19.2c-3.2,1.1-6.7-2.9-9.1-5.3
										C311.2,209.1,304.8,204.9,305.9,201.7z"/>
								</g>
							</g>
						</g>
					</g>
				</g>
				<g>
					<g>
						<path class="st8" d="M337.7,195.2c-0.5-4.4-3.8-9.7-8.2-9l-13.6,4.3c-1.3,0.2-2.1,1.3-2.5,1.1l4,31.7l9.4,6.6l5.8-7
							c0,0-0.4-4.4-0.4-4.3c0,0,5.6-1.3,6.4-8.8C338.9,206.1,338.3,200.1,337.7,195.2z"/>
					</g>
				</g>
				<g>
					<g>
						<g>
							<g>
								<g>
									<g>
										<g>
											<g>
												<g>
													<g>
														<g>
															<g>
																<g>
																	<g>
																		<g>
																			<g>
																				<g>
																					<g>
																						<g>
																							<g>
																								<g>
																									<g>
																										<g>
																											<g>
																												<path class="st4" d="M325.8,201.9c0,0.5-0.3,1-0.9,1c-0.5,0.1-1-0.3-1-0.8c0-0.5,0.3-1,0.9-1
																													C325.3,201,325.8,201.4,325.8,201.9z"/>
																											</g>
																										</g>
																									</g>
																								</g>
																							</g>
																						</g>
																					</g>
																				</g>
																			</g>
																		</g>
																	</g>
																</g>
															</g>
														</g>
													</g>
												</g>
											</g>
										</g>
										<g>
											<g>
												<g>
													<g>
														<g>
															<g>
																<g>
																	<g>
																		<g>
																			<g>
																				<g>
																					<g>
																						<g>
																							<g>
																								<g>
																									<g>
																										<g>
																											<g>
																												<path class="st4" d="M335.2,201.4c0,0.5-0.3,1-0.9,1c-0.5,0.1-1-0.3-1-0.8c0-0.5,0.3-1,0.9-1
																													C334.7,200.6,335.1,200.9,335.2,201.4z"/>
																											</g>
																										</g>
																									</g>
																								</g>
																							</g>
																						</g>
																					</g>
																				</g>
																			</g>
																		</g>
																	</g>
																</g>
															</g>
														</g>
													</g>
												</g>
											</g>
										</g>
										<g>
											<g>
												<g>
													<g>
														<g>
															<g>
																<g>
																	<g>
																		<g>
																			<g>
																				<g>
																					<g>
																						<g>
																							<g>
																								<g>
																									<g>
																										<g>
																											<g>
																												<g>
																													<path class="st4" d="M336.9,198.6c-0.1,0.2-1-0.4-2.1-0.3c-1.1,0.1-1.8,0.9-2,0.7
																														c-0.1-0.1,0-0.4,0.3-0.7c0.3-0.3,0.9-0.7,1.6-0.8c0.7-0.1,1.3,0.1,1.7,0.4
																														C336.8,198.2,336.9,198.5,336.9,198.6z"/>
																												</g>
																											</g>
																										</g>
																									</g>
																								</g>
																							</g>
																						</g>
																					</g>
																				</g>
																			</g>
																		</g>
																	</g>
																</g>
															</g>
														</g>
													</g>
												</g>
											</g>
										</g>
									</g>
									<g>
										<g>
											<g>
												<g>
													<g>
														<g>
															<g>
																<g>
																	<g>
																		<g>
																			<g>
																				<g>
																					<g>
																						<g>
																							<g>
																								<g>
																									<g>
																										<g>
																											<g>
																												<g>
																													<path class="st4" d="M326.7,199.5c-0.1,0.2-1-0.5-2.2-0.5c-1.2,0-2,0.7-2.2,0.5
																														c-0.1-0.1,0.1-0.3,0.4-0.7c0.4-0.3,1-0.6,1.7-0.6c0.7,0,1.4,0.3,1.7,0.6
																														C326.7,199.1,326.8,199.4,326.7,199.5z"/>
																												</g>
																											</g>
																										</g>
																									</g>
																								</g>
																							</g>
																						</g>
																					</g>
																				</g>
																			</g>
																		</g>
																	</g>
																</g>
															</g>
														</g>
													</g>
												</g>
											</g>
										</g>
									</g>
									<g>
										<g>
											<g>
												<g>
													<g>
														<g>
															<g>
																<g>
																	<g>
																		<g>
																			<g>
																				<g>
																					<g>
																						<g>
																							<g>
																								<g>
																									<g>
																										<g>
																											<g>
																												<g>
																													<path class="st4" d="M330.7,206.5c0-0.1,0.6-0.2,1.6-0.4c0.3,0,0.5-0.1,0.5-0.3
																														c0.1-0.2-0.1-0.5-0.2-0.8c-0.3-0.6-0.6-1.3-0.9-1.9c-1.2-2.8-2.1-5.1-2-5.1c0.1,0,1.2,2.2,2.4,4.9
																														c0.3,0.7,0.6,1.3,0.9,2c0.1,0.3,0.3,0.6,0.2,1c-0.1,0.2-0.2,0.4-0.4,0.4c-0.2,0.1-0.3,0.1-0.4,0.1
																														C331.4,206.5,330.7,206.6,330.7,206.5z"/>
																												</g>
																											</g>
																										</g>
																									</g>
																								</g>
																							</g>
																						</g>
																					</g>
																				</g>
																			</g>
																		</g>
																	</g>
																</g>
															</g>
														</g>
													</g>
												</g>
											</g>
										</g>
									</g>
									<g>
										<g>
											<g>
												<g>
													<g>
														<g>
															<g>
																<g>
																	<g>
																		<g>
																			<g>
																				<g>
																					<g>
																						<g>
																							<g>
																								<g>
																									<g>
																										<g>
																											<g>
																												<path class="st9" d="M332.1,218.6c0,0-5,0.6-10.1-2.1c0,0,2.8,5.3,10.2,4.2L332.1,218.6z"/>
																											</g>
																										</g>
																									</g>
																								</g>
																							</g>
																						</g>
																					</g>
																				</g>
																			</g>
																		</g>
																	</g>
																</g>
															</g>
														</g>
													</g>
												</g>
											</g>
										</g>
									</g>
									<g>
										<g>
											<g>
												<g>
													<g>
														<g>
															<g>
																<g>
																	<g>
																		<g>
																			<g>
																				<g>
																					<g>
																						<g>
																							<g>
																								<g>
																									<g>
																										<g>
																											<g>
																												<path class="st15" d="M330.4,209c-0.4-0.5-1.1-0.7-1.7-0.6c-0.4,0.1-0.9,0.3-1.1,0.7
																													c-0.2,0.4-0.3,0.9,0,1.2c0.3,0.4,0.9,0.4,1.4,0.3c0.5-0.2,0.9-0.5,1.3-0.9c0.1-0.1,0.2-0.2,0.3-0.3
																													C330.6,209.3,330.6,209.1,330.4,209"/>
																											</g>
																										</g>
																									</g>
																								</g>
																							</g>
																						</g>
																					</g>
																				</g>
																			</g>
																		</g>
																	</g>
																</g>
															</g>
														</g>
													</g>
												</g>
											</g>
										</g>
									</g>
									<g>
										<g>
											<g>
												<g>
													<g>
														<g>
															<g>
																<g>
																	<g>
																		<g>
																			<g>
																				<g>
																					<g>
																						<g>
																							<g>
																								<g>
																									<g>
																										<g>
																											<g>
																												<g>
																													<path class="st4" d="M327.7,207.4c0.2,0,0.2,1.1,1.2,1.8c1,0.7,2.2,0.5,2.2,0.7c0,0.1-0.3,0.2-0.7,0.3
																														c-0.5,0-1.2-0.1-1.8-0.5c-0.6-0.4-0.9-1.1-1-1.5C327.6,207.7,327.7,207.4,327.7,207.4z"/>
																												</g>
																											</g>
																										</g>
																									</g>
																								</g>
																							</g>
																						</g>
																					</g>
																				</g>
																			</g>
																		</g>
																	</g>
																</g>
															</g>
														</g>
													</g>
												</g>
											</g>
										</g>
									</g>
								</g>
							</g>
						</g>
						<g>
							<g>
								<g>
									<g>
										<g>
											<g>
												<g>
													<g>
														<g>
															<g>
																<g>
																	<g>
																		<g>
																			<g>
																				<g>
																					<g>
																						<g>
																							<g>
																								<g>
																									<path class="st4" d="M326.7,196c-0.1,0.3-1.1,0.2-2.3,0.4c-1.2,0.2-2.1,0.6-2.3,0.4
																										c-0.1-0.1,0.1-0.4,0.5-0.7c0.4-0.3,1-0.6,1.7-0.7c0.7-0.1,1.4,0,1.8,0.1
																										C326.5,195.7,326.7,195.9,326.7,196z"/>
																								</g>
																							</g>
																						</g>
																					</g>
																				</g>
																			</g>
																		</g>
																	</g>
																</g>
															</g>
														</g>
													</g>
												</g>
											</g>
										</g>
									</g>
								</g>
							</g>
						</g>
						<g>
							<g>
								<g>
									<g>
										<g>
											<g>
												<g>
													<g>
														<g>
															<g>
																<g>
																	<g>
																		<g>
																			<g>
																				<g>
																					<g>
																						<g>
																							<g>
																								<g>
																									<path class="st4" d="M336.5,194.9c-0.2,0.2-1,0-2,0.1c-1,0-1.8,0.3-2,0c-0.1-0.1,0-0.4,0.4-0.6
																										c0.3-0.2,0.9-0.5,1.6-0.5c0.7,0,1.3,0.2,1.6,0.4C336.5,194.5,336.6,194.7,336.5,194.9z"/>
																								</g>
																							</g>
																						</g>
																					</g>
																				</g>
																			</g>
																		</g>
																	</g>
																</g>
															</g>
														</g>
													</g>
												</g>
											</g>
										</g>
									</g>
								</g>
							</g>
						</g>
					</g>
				</g>
				<g>
					<g>
						<g>
							<g>
								<g>
									<path class="st4" d="M301.5,200.3c0.7-1.3-0.6-2.7,0.4-3.9c1-1.1,3.6-1.1,4.5-2.2c0.7-0.9,0.8-1.1,0.8-1.9
										c0-1,0.5-5.3,6.7-6.2l0.9,3.9c0.4-0.2,0.8-0.3,1.2-0.5c5.1-1.9,10.4-3.1,15.8-3.7c0.6,1.1,0,2.6-1,3.4
										c-1,0.8-2.3,1.1-3.5,1.5c-1.2,0.4-2.5,1.1-3,2.3c-0.6,1.3-0.1,2.8-0.6,4c-0.8,2.2-3.9,2.9-4.8,5.1c-0.6,1.7,1,3.6,1.2,5.3
										c0.2,2,0.6,5.1-0.8,6.5c-1.2,1.1-3.5,2.6-3.5,2.6l-18.4-11.6C296.4,202.6,300.6,202.1,301.5,200.3z"/>
								</g>
							</g>
						</g>
					</g>
				</g>
			</g>
			<g>
				<g>
					<g>
						<g>
							<path class="st4" d="M314.6,214.6c0,0,0.5-0.1,1.4-0.5c0.9-0.4,2.1-1.3,3-2.8c0.5-0.8,0.8-1.7,0.9-2.7c0.1-1,0.1-2.2-0.3-3.3
								c-0.2-0.6-0.4-1.1-0.5-1.7c-0.1-0.6-0.2-1.2-0.1-1.8c0.1-0.6,0.5-1.1,1.1-1.4c0.5-0.3,1.2-0.5,1.8-0.8
								c0.6-0.2,1.3-0.5,1.7-1.1c0.4-0.5,0.6-1.2,0.6-1.8c0.1-1.3-0.1-2.5,0.3-3.6l0.1-0.2l0.1-0.2c0.1-0.1,0.2-0.2,0.2-0.3
								c0.2-0.2,0.4-0.4,0.6-0.5c0.5-0.3,0.9-0.5,1.4-0.6c1-0.3,1.9-0.5,2.7-1c0.8-0.5,1.3-1.1,1.7-1.6c0.4-0.6,0.6-1.1,0.8-1.6
								c0.1-0.5,0.2-0.9,0.2-1.1c0-0.3,0-0.4,0-0.4c0,0,0,0.6-0.3,1.5c-0.2,0.5-0.4,1-0.8,1.6c-0.4,0.6-1,1.1-1.7,1.6
								c-0.7,0.5-1.7,0.7-2.7,0.9c-0.5,0.1-1,0.3-1.5,0.6c-0.2,0.1-0.5,0.3-0.7,0.6c-0.1,0.1-0.2,0.2-0.3,0.4l-0.1,0.2l-0.1,0.2
								c-0.5,1.1-0.2,2.4-0.3,3.6c0,0.6-0.2,1.2-0.6,1.7c-0.4,0.5-1,0.8-1.6,1c-0.6,0.2-1.3,0.4-1.8,0.8c-0.3,0.2-0.5,0.4-0.7,0.7
								c-0.2,0.3-0.3,0.6-0.4,0.9c-0.1,0.6-0.1,1.3,0.1,1.9c0.1,0.6,0.4,1.2,0.5,1.7c0.7,2.2,0.3,4.4-0.6,5.8
								c-0.9,1.5-2.1,2.3-2.9,2.8c-0.4,0.2-0.8,0.4-1,0.4C314.7,214.5,314.6,214.6,314.6,214.6z"/>
						</g>
					</g>
				</g>
			</g>
			<g>
				<g>
					<g>
						<g>
							<path class="st4" d="M336.1,187.5c0,0,0.4-0.1,1.1-0.2c0.7-0.1,1.8,0,3,0.6c1.1,0.6,2.3,1.8,2.7,3.6c0.2,0.8,0.2,1.8,0.1,2.7
								c0,0.5-0.1,1-0.1,1.4c0,0.5-0.1,1,0.1,1.5c0.1,0.5,0.4,1,0.9,1.3c0.5,0.3,1,0.3,1.5,0.3c0.5,0,0.9,0,1.4,0.1
								c0.4,0.1,0.8,0.3,1.2,0.6c0.7,0.5,1.1,1.3,1.3,2c0.1,0.8,0.1,1.5,0,2.1c-0.1,0.7-0.2,1.3-0.2,1.8c0,0.5,0.1,1,0.2,1.4
								c0.1,0.4,0.2,0.6,0.4,0.8c0.1,0.1,0.1,0.1,0.1,0.2c0,0,0.1,0.1,0.1,0.1c0,0-0.3-0.3-0.5-1c-0.1-0.4-0.1-0.8-0.1-1.3
								c0-0.5,0.1-1.1,0.2-1.8c0.1-0.7,0.2-1.4,0-2.2c-0.1-0.8-0.6-1.6-1.3-2.1c-0.4-0.3-0.8-0.5-1.2-0.6c-0.5-0.1-1-0.1-1.4-0.1
								c-0.5,0-1,0-1.4-0.2c-0.4-0.2-0.7-0.6-0.8-1.1c-0.2-1,0-2,0.1-2.9c0.1-1,0.1-1.9-0.1-2.8c-0.4-1.8-1.6-3.1-2.8-3.7
								c-1.2-0.6-2.4-0.6-3.1-0.5c-0.4,0-0.7,0.1-0.8,0.2C336.2,187.4,336.1,187.5,336.1,187.5z"/>
						</g>
					</g>
				</g>
			</g>
			<g>
				<g>
					<g>
						<g>
							<g>
								<g>
									<path class="st10" d="M305.1,209.6c0,0,0,0,0-0.1c0-0.1-0.1-0.2-0.1-0.3c-0.1-0.3-0.2-0.8-0.1-1.3c0.1-0.6,0.4-1.3,1-1.9
										c0.3-0.3,0.7-0.5,1.2-0.6c0.5-0.1,1-0.2,1.5-0.3c0.3-0.1,0.5-0.2,0.7-0.4c0.2-0.2,0.4-0.5,0.5-0.7c0.2-0.6,0.2-1.2,0.2-1.8
										c0-0.6-0.1-1.3,0-1.9c0-0.3,0.1-0.6,0.3-0.9c0.2-0.3,0.4-0.5,0.7-0.7c0.6-0.4,1.3-0.5,2-0.7c0.7-0.2,1.5-0.3,2.1-0.8
										c0.3-0.2,0.6-0.5,0.8-0.9c0.2-0.3,0.3-0.7,0.4-1.1c0.2-0.8,0.2-1.6,0.3-2.4c0.3-1.6,1.5-2.9,2.9-3.4
										c0.7-0.3,1.5-0.3,2.2-0.4c0.4,0,0.7-0.1,1.1-0.2c0.4-0.1,0.7-0.3,0.9-0.6c0.5-0.5,0.7-1.2,0.9-1.8c0.2-0.6,0.5-1.2,1-1.6
										c0.8-0.9,2-1.4,3-1.5c1.1-0.1,2,0.2,2.7,0.6c0.7,0.4,1.2,1,1.6,1.5c0.3,0.5,0.5,0.9,0.6,1.2c0.1,0.1,0.1,0.3,0.1,0.3
										c0,0.1,0,0.1,0,0.1c0,0,0-0.2-0.1-0.5c-0.1-0.3-0.3-0.7-0.6-1.2c-0.3-0.5-0.8-1.1-1.6-1.5c-0.7-0.4-1.7-0.7-2.8-0.6
										c-1.1,0.1-2.2,0.6-3.1,1.6c-0.4,0.5-0.8,1-1,1.7c-0.2,0.6-0.4,1.3-0.9,1.8c-0.5,0.5-1.2,0.6-1.9,0.7
										c-0.7,0.1-1.5,0.1-2.2,0.4c-1.5,0.5-2.7,1.9-3,3.5c-0.2,0.8-0.2,1.6-0.3,2.4c-0.1,0.4-0.2,0.8-0.4,1.1
										c-0.2,0.3-0.4,0.6-0.8,0.8c-1.3,0.8-2.9,0.7-4.1,1.5c-0.3,0.2-0.6,0.5-0.7,0.8c-0.2,0.3-0.3,0.6-0.3,1
										c-0.1,0.7,0,1.3,0,1.9c0,0.6,0,1.2-0.2,1.8c-0.1,0.3-0.3,0.5-0.5,0.7c-0.2,0.2-0.4,0.3-0.7,0.4c-0.5,0.2-1,0.2-1.5,0.4
										c-0.5,0.1-0.9,0.4-1.2,0.7c-0.6,0.6-0.9,1.3-1,1.9c-0.1,0.6,0,1.1,0.1,1.4c0,0.2,0.1,0.3,0.1,0.3
										C305.1,209.6,305.1,209.6,305.1,209.6z"/>
								</g>
							</g>
						</g>
					</g>
				</g>
			</g>
		</g>
	</g>
</g>
<g id="Character_1">
	<g>
		<g>
			<g>
				
					<ellipse transform="matrix(0.9887 -0.1499 0.1499 0.9887 -30.9143 27.6622)" class="st3" cx="168.1" cy="218.9" rx="70.2" ry="70.2"/>
			</g>
			<g>
				<g>
					<g>
						<g>
							<path class="st8" d="M228.9,205.4l0.8,29.9l-10.7-16.4l-25-0.2l5.6,9.9c5.8,8.7,9.4,15.9,17,24.2c3.8,4.1,7.4,9.9,9.1,11.1
								c4.2,2.9,10.4,5.3,15.8,0.6c7.6-6.6,6.7-19.2,4.3-32.1c-2.7-14.3-4-28.1-4-28.1L228.9,205.4z"/>
						</g>
					</g>
					<g>
						<g>
							<path class="st8" d="M231.9,187.3c0,0-2.3-4.5-4.1-4c-1.8,0.4-4.3,2-4.6,3.5c-0.3,1.5,0.1,2.8,0.8,2.8
								c0.7-0.1,2.7-1.4,2.7-1.4l2.3,3.3l-1,4.2l-2.4,1.3l-1.4-2.9l0.6-3.3c0,0-1.7-1.4-2.6,1.2c-0.9,2.6-2,7.4,0.7,9.7
								c2.6,2.3,7.6,5.4,7.6,5.4l12-1l2.9-14.1c0,0,4.8-4.9,5.1-6.8c0.3-2,0.6-8,0.6-8s-1.4-1.1-2.3,0.6c-0.8,1.7-1.6,6.6-1.6,6.6
								l-4,3.8l1.6-17.3c0,0-2.4-1.6-3.4,2.3c-1,3.9-2.1,13.5-2.5,13.5c-0.5,0-1.9,0-1.7-2c0.2-2-0.4-17.4-0.4-17.4s-3.5,0.8-3.2,4
								c0.2,3.2,0.1,13.4,0,14.2C233.2,186.1,231.9,187.3,231.9,187.3z"/>
						</g>
					</g>
					<g>
						<g>
							<g>
								<path class="st9" d="M231.9,250c-0.1,0-0.9-3.2-1.5-7.3c-0.6-4.1-0.7-7.5-0.5-7.5c0.2,0,0.6,3.3,1.1,7.4
									C231.5,246.6,232,249.9,231.9,250z"/>
							</g>
						</g>
					</g>
					<g>
						<g>
							<g>
								<path class="st9" d="M235.3,202c-0.1,0-0.3-0.5-0.7-1.2c-0.4-0.7-1.1-1.6-2.1-2.4c-1-0.7-2.1-1.1-2.9-1.3
									c-0.8-0.2-1.3-0.2-1.3-0.3c0-0.1,0.5-0.2,1.4-0.1c0.9,0.1,2.1,0.5,3.2,1.3c1.1,0.8,1.8,1.8,2.2,2.6
									C235.3,201.4,235.3,201.9,235.3,202z"/>
							</g>
						</g>
					</g>
				</g>
				<g>
					<g>
						<polygon class="st8" points="142.4,202.5 158.4,200.9 185.8,202.1 198.2,206.4 180.9,223.9 158,221.1 147.8,215.3 						"/>
					</g>
					<g>
						<g>
							<g>
								<g>
									<g>
										<g>
											<g>
												<g>
													<g>
														<g>
															<path class="st4" d="M178.5,134.4c2.8-1.8,3.5-5.9,2-8.9c-1.5-3-4.8-4.8-8.1-5.3c-4.8-0.8-9.9,0.9-13.2,4.4
																c-1.8,1.9-3.3,4.3-5.8,5.2c-2.2,0.8-4.6,0.1-6.8,0.4c-3.1,0.4-5.7,2.6-7.2,5.2c-1.6,2.6-2.2,5.7-2.6,8.8
																c-0.3,2.8-0.6,5.9-2.5,7.9c-1.9,2-4.9,2.4-7.3,3.8c-4.4,2.7-5.9,9.3-2.9,13.6c0.9,1.4,2.3,2.6,2.4,4.3
																c0.1,1.5-0.9,2.8-1.3,4.3c-1.2,3.7,1.9,8.1,5.7,8.3c2,0.1,4.1-0.7,5.8,0.2c1.7,0.9,2.4,3,3.5,4.6
																c2.2,3.1,6.8,4.3,10.2,2.6c1.4-0.7,2.8-1.9,4.4-1.8c1.6,0.1,2.9,1.5,4.4,1.8c2.1,0.4,4-1.1,5.2-2.8
																c1.2-1.7,2.1-3.7,3.6-5.1c2-1.8,4.9-2.3,7.5-3.2c5.7-2,10.5-6.5,12.8-12.1c2.3-5.6,2-12.2-0.8-17.6"/>
														</g>
													</g>
												</g>
											</g>
										</g>
									</g>
								</g>
							</g>
						</g>
						<g>
							<g>
								<g>
									<g>
										<g>
											<g>
												<g>
													<g>
														<g>
															<path class="st10" d="M148.7,171.2c-0.6-0.6-1.4-1.2-2.3-1.5l0.2,0c-0.2,0-0.3-0.1-0.5-0.1c-0.6-0.1-1.3-0.1-1.8,0.2
																l0,0c-1,0.4-1.8,1.1-2.3,2c-0.8,1.6-0.5,3.7,0.6,5.2c1,1.3,2.6,2.1,4.2,1.7c1.4-0.3,2.5-1.6,2.9-3
																C150,174.2,149.7,172.4,148.7,171.2z"/>
														</g>
													</g>
												</g>
											</g>
										</g>
									</g>
								</g>
							</g>
						</g>
						<g>
							<g>
								<g>
									<g>
										<g>
											<path class="st8" d="M185.8,202.1l3-55c0.1-2.4-1.6-4.5-4-4.9l-24.6-7c-7.9-1.1-13.5,8.6-14.2,16.5
												c-0.8,8.8-1.4,19.6-0.6,26.3c1.7,13.3,12.6,15.3,12.6,15.3c0,0,0.1,13.6,0,18.4l8.2,17.7L185.8,202.1z"/>
										</g>
									</g>
								</g>
							</g>
							<g>
								<g>
									<g>
										<g>
											<path class="st4" d="M151,161.8c-0.1,0.9,0.7,1.7,1.6,1.8c0.9,0.1,1.7-0.6,1.8-1.5c0.1-0.9-0.7-1.7-1.6-1.8
												C151.8,160.2,151,160.9,151,161.8z"/>
										</g>
									</g>
								</g>
							</g>
							<g>
								<g>
									<g>
										<g>
											<path class="st4" d="M148.2,156.6c0.2,0.2,1.5-0.7,3.4-0.6c1.8,0,3.1,1,3.4,0.8c0.1-0.1-0.1-0.5-0.7-0.9
												c-0.6-0.4-1.5-0.9-2.7-0.9c-1.1,0-2.1,0.4-2.7,0.8C148.3,156.1,148.1,156.5,148.2,156.6z"/>
										</g>
									</g>
								</g>
							</g>
							<g>
								<g>
									<g>
										<g>
											<path class="st4" d="M167.4,162.2c-0.1,0.9,0.7,1.7,1.6,1.8c0.9,0.1,1.7-0.6,1.8-1.5c0.1-0.9-0.7-1.7-1.6-1.8
												C168.3,160.7,167.5,161.3,167.4,162.2z"/>
										</g>
									</g>
								</g>
							</g>
							<g>
								<g>
									<g>
										<g>
											<path class="st4" d="M166.2,157.4c0.2,0.2,1.5-0.7,3.4-0.6c1.8,0,3.1,1,3.4,0.8c0.1-0.1-0.1-0.5-0.7-0.9
												c-0.6-0.4-1.5-0.9-2.7-0.9c-1.1,0-2.1,0.4-2.7,0.8C166.3,156.9,166.1,157.3,166.2,157.4z"/>
										</g>
									</g>
								</g>
							</g>
							<g>
								<g>
									<g>
										<g>
											<path class="st4" d="M159.2,170.8c0-0.1-1.1-0.3-3-0.6c-0.5-0.1-0.9-0.2-1-0.5c-0.1-0.3,0.1-0.8,0.4-1.4
												c0.5-1.1,1-2.3,1.5-3.5c2.1-5,3.6-9.1,3.4-9.2c-0.2-0.1-2,3.9-4.1,8.9c-0.5,1.2-1,2.4-1.4,3.5c-0.2,0.5-0.5,1.1-0.3,1.8
												c0.1,0.4,0.5,0.6,0.7,0.7c0.3,0.1,0.6,0.1,0.8,0.1C158,170.9,159.2,170.9,159.2,170.8z"/>
										</g>
									</g>
								</g>
							</g>
							<g>
								<g>
									<g>
										<g>
											<path class="st9" d="M158.1,193.4c0,0,8.1,0.8,17.1-4.3c0,0-3.8,9.9-17.1,8.2L158.1,193.4z"/>
										</g>
									</g>
								</g>
							</g>
							<g>
								<g>
									<g>
										<g>
											<path class="st9" d="M159.3,175.2c0.9-1.2,2.4-2,3.8-1.9c1,0.1,1.9,0.5,2.4,1.4c0.5,0.8,0.5,2.1-0.1,3c-0.7,1-2,1.3-3,1
												c-1-0.3-1.9-1-2.6-1.7c-0.2-0.2-0.4-0.4-0.6-0.7c-0.1-0.3-0.1-0.7,0.1-0.9"/>
										</g>
									</g>
								</g>
							</g>
							<g>
								<g>
									<g>
										<g>
											<path class="st4" d="M164.5,172.2c-0.3,0-0.4,2-2.1,3.3c-1.7,1.4-3.8,1.1-3.9,1.4c0,0.1,0.5,0.4,1.4,0.4
												c0.9,0.1,2.2-0.2,3.2-1c1.1-0.8,1.5-2,1.6-2.8C164.9,172.7,164.7,172.2,164.5,172.2z"/>
										</g>
									</g>
								</g>
							</g>
							<g>
								<g>
									<g>
										<g>
											<path class="st4" d="M165.6,149.9c0.2,0.5,2,0.3,4.1,0.6c2.1,0.3,3.9,1,4.2,0.5c0.1-0.2-0.2-0.7-0.8-1.2
												c-0.7-0.5-1.8-1-3.1-1.2c-1.3-0.2-2.5,0-3.3,0.3C166,149.3,165.5,149.6,165.6,149.9z"/>
										</g>
									</g>
								</g>
							</g>
							<g>
								<g>
									<g>
										<g>
											<path class="st4" d="M149,150.3c0.3,0.4,1.6,0,3.1,0.1c1.5,0,2.8,0.4,3.1-0.1c0.1-0.2-0.1-0.6-0.6-1
												c-0.5-0.4-1.5-0.8-2.5-0.8c-1,0-2,0.4-2.5,0.8C149.1,149.7,148.9,150.1,149,150.3z"/>
										</g>
									</g>
								</g>
							</g>
						</g>
						<g>
							<g>
								<g>
									<g>
										<g>
											<g>
												<path class="st4" d="M137.1,148.1c0.6-2,1.8-3.9,3.5-5c1-0.6,2.1-1,3-1.7c1.9-1.5,2.4-4.2,3.5-6.4
													c1.5-2.8,4.5-4.7,7.6-5.1c2.6-0.3,5.3,0.5,7.9-0.1c1.9-0.5,3.5-1.7,5.5-2.1c3.7-0.7,7.2,2,9.9,4.6
													c0,2.7-2.1,4.5-4.2,6.2c-2.1,1.7-4.9,2.5-7.5,2c-2-0.4-4.3-1.4-6-0.3c-1.9,1.1-1.9,3.9-3.6,5.4c-2.4,2-6.1,0.1-9.1,1
													c-2.3,0.7-3.8,2.9-5.3,4.7c-1.5,1.9-3.8,3.6-6.1,2.9C136.3,152.2,136.5,150.1,137.1,148.1z"/>
											</g>
										</g>
									</g>
								</g>
							</g>
						</g>
						<g>
							<g>
								<g>
									<g>
										<g>
											<g>
												<path class="st4" d="M165.2,136.8c1.7-0.5,5.1-1.6,6-3c2-3.2,5.4-5.3,8.9-5.1c3.5,0.2,6.9,3,7.6,6.7
													c4.3,0,8.4,2.7,10.4,6.7c0.3,0.5,0.5,1,0.7,1.6c1.3,2.3,1.6,5.3,0.6,7.8c-0.6,1.5-1.6,3.2-0.8,4.6
													c0.8,1.4,2.8,1.5,4.4,2c2.7,0.9,4.5,4.1,3.9,6.9c-0.2,1-0.7,2-0.5,3c0.2,1,1.1,1.8,1.8,2.6c1.7,2,2.2,5,1.3,7.5
													c-0.9,2.5-3.2,4.5-5.8,4.9c-1.2,0.2-2.5,0.2-3.5,0.8c-1.2,0.7-1.7,2.2-2.5,3.3c-1.6,2.1-4.6,3.1-7.1,2.2
													c-0.5-0.2-1-0.4-1.4-0.7c-0.8,1.1-2.1,1.9-4.2,1.9l0.5-28c-0.3,0.6-0.8,1.1-1.7,1.3c-4.5,1-5.1-8.2-4.1-10.7
													c-1.6-1.4-3.3-2.9-4.5-4.7c-1.2-1.8-2.3-6.8-2.1-9.1C171.3,139.3,164.4,137,165.2,136.8z"/>
											</g>
										</g>
									</g>
								</g>
							</g>
						</g>
						<g>
							<g>
								<g>
									<g>
										<g>
											<g>
												<g>
													<g>
														<g>
															<g>
																<g>
																	<g>
																		<g>
																			<g>
																				<g>
																					<g>
																						<g>
																							<g>
																								<path class="st8" d="M184.1,164.7c0.1-2.8,3.6-3.5,6.1-2c1.4,0.8,2.4,2.4,2.3,5.4c-0.3,8-8.3,6.1-8.3,5.8
																									C184.1,173.7,183.9,168,184.1,164.7z"/>
																							</g>
																						</g>
																					</g>
																				</g>
																			</g>
																		</g>
																	</g>
																</g>
															</g>
														</g>
													</g>
												</g>
											</g>
										</g>
									</g>
								</g>
							</g>
						</g>
						<g>
							<g>
								<g>
									<g>
										<g>
											<g>
												<g>
													<g>
														<g>
															<g>
																<g>
																	<g>
																		<g>
																			<g>
																				<g>
																					<g>
																						<g>
																							<g>
																								<g>
																									<path class="st9" d="M186.7,170.9c0,0,0.1,0.1,0.4,0.2c0.2,0.1,0.6,0.2,1,0.1c0.9-0.3,1.6-1.6,1.7-3
																										c0.1-0.7-0.1-1.4-0.3-2c-0.2-0.6-0.6-1-1-1.1c-0.4-0.1-0.7,0.1-0.8,0.4c-0.1,0.2-0.1,0.4-0.1,0.4
																										c0,0-0.2-0.1-0.1-0.5c0-0.2,0.1-0.3,0.3-0.5c0.2-0.1,0.5-0.2,0.8-0.2c0.6,0.1,1.2,0.7,1.4,1.3
																										c0.3,0.7,0.5,1.4,0.4,2.3c-0.1,1.6-1,3.1-2.2,3.4c-0.6,0.1-1-0.1-1.3-0.3
																										C186.7,171.1,186.7,170.9,186.7,170.9z"/>
																								</g>
																							</g>
																						</g>
																					</g>
																				</g>
																			</g>
																		</g>
																	</g>
																</g>
															</g>
														</g>
													</g>
												</g>
											</g>
										</g>
									</g>
								</g>
							</g>
						</g>
						<g>
							<g>
								<g>
									<g>
										<g>
											<g>
												<g>
													<g>
														<g>
															<path class="st10" d="M176.2,134.6c-0.1,0.1,0.8,0.2,1.6,1.3c0.8,1.1,1.1,3.2,0.6,5.6l0,0.2l0.2,0
																c2,0.5,4.2,2.1,5.2,4.6c0.2,0.6,0.4,1.3,0.4,2c0,0.7-0.1,1.4-0.3,2.1c-0.1,0.7-0.3,1.5-0.3,2.3
																c-0.1,0.8,0.2,1.7,0.6,2.4c1,1.5,2.6,2.3,4,3c1.4,0.7,2.7,1.4,3.7,2.4c2,2,2.9,4.6,3,6.7c0.1,2.2-0.5,3.9-1.1,5
																c-0.5,1.1-1,1.6-0.9,1.7c0,0,0.1-0.1,0.3-0.4c0.2-0.3,0.5-0.6,0.8-1.2c0.6-1.1,1.3-2.8,1.3-5.1c0-2.2-0.9-5-3-7.1
																c-1-1.1-2.4-1.9-3.9-2.6c-1.4-0.7-2.9-1.5-3.8-2.8c-0.9-1.2-0.5-2.8-0.3-4.3c0.1-0.7,0.3-1.5,0.2-2.2
																c0-0.8-0.2-1.5-0.5-2.1c-1.1-2.7-3.5-4.3-5.6-4.8l0.2,0.3c0.5-2.5,0.1-4.7-0.8-5.8c-0.4-0.6-0.9-0.9-1.3-1
																C176.4,134.7,176.2,134.6,176.2,134.6z"/>
														</g>
													</g>
												</g>
											</g>
										</g>
									</g>
								</g>
							</g>
						</g>
						<g>
							<g>
								<g>
									<g>
										<g>
											<g>
												<g>
													<path class="st10" d="M189.7,173.9c-0.6-0.6-1.4-1.2-2.3-1.5l0.2,0c-0.2,0-0.3-0.1-0.5-0.1c-0.6-0.1-1.3-0.1-1.8,0.2
														l0,0c-1,0.4-1.8,1.1-2.3,2c-0.8,1.6-0.5,3.7,0.6,5.2c1,1.3,2.6,2.1,4.2,1.7c1.4-0.3,2.5-1.6,2.9-3
														C191.1,176.9,190.8,175.1,189.7,173.9z"/>
												</g>
											</g>
										</g>
									</g>
								</g>
							</g>
						</g>
					</g>
				</g>
				<g>
					<g>
						<g>
							<path class="st10" d="M204.9,278l0.2-33.8l3.1,6.2l19.7-19.6c0,0-9.5-17.3-13.9-20.7c-4.4-3.4-21.6-6.8-22.7-7.5
								c0,0-4.5,7.5-18.4,11.7c-13.9,4.2-25.6-13.8-25.6-13.8l-15.8,0.7c0,0-1.3,23.7-1.6,40c-0.1,4.8,0.2,8.9,0.3,11.6
								c0.5,11.8,12.4,32.1,12.4,32.1s16.9,6,34.8,3.8C195.3,286.6,204.9,278,204.9,278z"/>
						</g>
					</g>
					<g>
						<g>
							<path class="st10" d="M131.4,201.3c-8.2,1.7-15.6,12.1-24.5,32.4l24.1,17.9L131.4,201.3z"/>
						</g>
					</g>
					<g>
						<g>
							<g>
								<path class="st4" d="M206,223.4c0,0,0.1,0.4,0.2,1.1c0.1,0.7,0.1,1.7,0.2,2.9c0.1,2.5,0.1,5.9-0.2,9.6
									c-0.2,3.8-0.6,7.1-1,9.6c-0.2,1.2-0.4,2.2-0.5,2.9c-0.1,0.7-0.2,1-0.3,1c-0.1,0,0.1-1.5,0.4-4c0.3-2.4,0.6-5.8,0.8-9.6
									c0.2-3.7,0.3-7.1,0.3-9.6C206,225,206,223.4,206,223.4z"/>
							</g>
						</g>
					</g>
					<g>
						<g>
							<g>
								<path class="st4" d="M132.2,218.1c0,0,0,0.5-0.1,1.3c-0.1,1-0.3,2.2-0.5,3.6c-0.4,3-1,7.2-1.4,11.8
									c-0.4,4.6-0.3,8.9-0.2,11.9c0.1,1.4,0.1,2.6,0.2,3.6c0,0.9,0,1.3,0,1.3c0,0-0.1-0.5-0.2-1.3c-0.1-0.8-0.2-2.1-0.4-3.6
									c-0.2-3.1-0.3-7.3,0-12c0.3-4.7,1-8.8,1.6-11.9c0.3-1.5,0.5-2.7,0.7-3.6C132,218.6,132.1,218.1,132.2,218.1z"/>
							</g>
						</g>
					</g>
				</g>
			</g>
			<g>
				<g>
					<g>
						<path class="st4" d="M169.8,230.5l0.8,32.3c0,1.6-1.3,3-2.9,3.1l-13.6,0.3c-1.6,0-2.9-1.2-3-2.8l-2.2-31.9
							c-0.1-1.7,1.2-3.1,2.8-3.2l15-0.7C168.4,227.5,169.8,228.9,169.8,230.5z"/>
					</g>
				</g>
				<g>
					<g>
						<path class="st5" d="M158,234.2c0,0.7,0.6,1.2,1.3,1.2c0.7,0,1.2-0.6,1.2-1.3c0-0.7-0.6-1.2-1.3-1.2
							C158.5,232.9,158,233.5,158,234.2z"/>
					</g>
				</g>
			</g>
			<g>
				<g>
					<g>
						<path class="st8" d="M149.5,238.8c0,0-3.7,4.8-5,6.9c-1.3,2.1-1.6,8.8-1.6,8.8l0.1,4.7l-7.4,3.3l5.7,15.9l11.2-9.7l11.3-2.1
							c0,0,5.2-5.4,6-7.8c0.8-2.4,0.6-4.2,0.6-4.2s2.3-5.6,2.7-7.6c0.4-2,0.3-5.5,0.3-5.5s-1.5-0.3-2.6,2.1l1.8-4.1
							c0,0-1.2-3-3.7,0.1c-2.5,3.1-6.7,8.3-6.7,8.3l-4.8,4.2l-0.6-0.7c0,0,8.4-11.3,8.1-13.2c-0.3-1.9-2.1-2-4,0.2
							s-9.4,12.7-10.4,12.9c-1,0.1-1.4-1.3-1.4-1.3l0.5-3.9l0.4-0.8L149.5,238.8z"/>
					</g>
				</g>
				<g>
					<g>
						<g>
							<path class="st9" d="M164.1,254.4c0,0,0.1-0.1,0.3-0.4c0.2-0.3,0.5-0.7,0.8-1.1c0.7-1,1.6-2.4,2.6-3.9c1-1.6,1.8-3,2.3-4.1
								c0.3-0.5,0.5-1,0.6-1.3c0.1-0.3,0.2-0.5,0.2-0.5c0,0-0.1,0.1-0.3,0.4c-0.2,0.3-0.4,0.7-0.7,1.2c-0.6,1-1.4,2.5-2.4,4
								c-1,1.6-1.9,3-2.5,4c-0.3,0.5-0.6,0.9-0.8,1.2C164.2,254.2,164.1,254.4,164.1,254.4z"/>
						</g>
					</g>
				</g>
				<g>
					<g>
						<g>
							<path class="st9" d="M166.7,259.4c0.1,0,1.1-1.4,2.3-3.3c1.2-1.8,2.1-3.4,2.1-3.4c-0.1,0-1.1,1.4-2.3,3.3
								C167.6,257.9,166.6,259.4,166.7,259.4z"/>
						</g>
					</g>
				</g>
			</g>
			<g>
				<path class="st8" d="M110.4,236.3c0,0-12.5,32.7-13.1,44c-0.5,10.3,8.4,16.5,15.1,15.5c15.8-2.3,40.1-27.2,40.1-27.2l-9.1-9.7
					l-21.3,9.6l6.6-18.6L110.4,236.3z"/>
			</g>
		</g>
		<g class="st11">
			<g>
				<path d="M227.5,267.1c2.6-6.5,0.7-14.3-4-19.4c-4.7-5.1-11.8-7.7-18.7-8c-11.7-0.4-23.5,5.9-29.7,15.8c-6.2,10-6.6,23.3-1,33.6
					c0,0,5.7-0.3,9.9-2.4C188.1,284.6,227.5,267.1,227.5,267.1z"/>
			</g>
		</g>
		<g>
			<g>
				<g>
					
						<ellipse transform="matrix(0.859 -0.512 0.512 0.859 -110.7811 142.2395)" class="st7" cx="202.8" cy="272.2" rx="26.6" ry="26.6"/>
				</g>
				<g>
					<g>
						<polygon class="st5" points="200.9,284.6 187.1,273.1 191.2,268.2 200.4,276 214.6,260.9 219.2,265.2 						"/>
					</g>
				</g>
			</g>
		</g>
	</g>
	<g>
		<g>
			<path class="st7" d="M138.1,253.2c0,0-0.5,0.2-1.3,0.6c-0.9,0.4-2.1,0.9-3.6,1.6c-3.1,1.4-7.2,3.3-11.8,5.3
				c-4.6,2.1-8.7,4-11.8,5.4c-1.4,0.6-2.7,1.2-3.6,1.6c-0.9,0.4-1.3,0.6-1.3,0.5c0,0,0.4-0.3,1.3-0.7c0.8-0.4,2-1,3.5-1.7
				c3-1.4,7.1-3.4,11.7-5.5c4.6-2.1,8.8-3.9,11.9-5.2c1.5-0.6,2.8-1.1,3.7-1.4C137.6,253.3,138.1,253.2,138.1,253.2z"/>
		</g>
	</g>
</g>
</svg>
